<svg xmlns="http://www.w3.org/2000/svg" viewBox="0 0 713.56 480.81"><g id="Layer_2" data-name="Layer 2"><g id="Layer_1-2" data-name="Layer 1"><g id="Layer_1-3" data-name="Layer 1"><path d="M532.47,426.78c58.64,4.14,131.94-19.11,164.28-70.1,13.39-21.11,22.28-48.2,13-71.55-7.06-17.69-36.93-37.68-43.37-55.62-6.54-18.19-5.61-38.68-2.26-57.8,9.65-55-44-140.74-157.19-149.9C421,14.87,382.2,81.6,309.13,90.71c-73.73,9.19-160.19-45.95-212.93,0C30.69,147.79,61.43,204.92,69.4,231.65,79.65,266,29.59,305.18,39.91,355.73c23.08,113,190.84,36.81,240,32,49.94-4.85,99.49,9.37,148.43,20.78s100.77,20,148.6,4.33Z" fill="#f3faff"/><ellipse cx="352.56" cy="464.01" rx="352.56" ry="16.8" fill="#e9ecf2"/><path d="M45.68,176.22l-1.07.12c-2.37-20.94,4-41.3,20.19-64l.87.62C49.69,135.43,43.33,155.55,45.68,176.22Z" fill="#2e4882"/><path d="M38.93,190.25l-1,.32c-12.26-39,8.77-70.67,31-96.46l.81.7C47.68,120.37,26.83,151.7,38.93,190.25Z" fill="#2e4882"/><path d="M556.22,24c-24.6-12.58-45.42-16-65.54-10.66l-.27-1c20.38-5.37,41.45-2,66.3,10.74Z" fill="#2e4882"/><path d="M574.7,25.3C546.24,7.22,512.23-8.9,475.83,8.63l-.47-1c36.88-17.76,71.2-1.51,99.92,16.73Z" fill="#2e4882"/><path d="M262.17,132.41l-1.56,0c0-.79.06-1.58.11-2.37l1.56.11C262.23,130.87,262.19,131.64,262.17,132.41Z" fill="#3f5a9f"/><path d="M368.47,119.37c-.42-1.52-.91-3-1.46-4.5l1.46-.55c.56,1.51,1.07,3.07,1.51,4.63Zm-105.65,6-1.54-.24c.25-1.6.58-3.2,1-4.77l1.52.38C263.38,122.29,263.06,123.85,262.82,125.4Zm102.33-14.89c-.68-1.41-1.43-2.82-2.23-4.17l1.34-.8c.82,1.4,1.6,2.84,2.3,4.3Zm-100,5.72-1.47-.51c.53-1.53,1.13-3,1.8-4.53l1.42.64C266.23,113.26,265.64,114.74,265.12,116.23Zm95.21-13.85c-.92-1.28-1.9-2.53-2.93-3.72l1.18-1c1.06,1.23,2.07,2.52,3,3.83ZM269,107.59l-1.36-.76c.79-1.41,1.65-2.81,2.56-4.14l1.29.87C270.6,104.86,269.76,106.22,269,107.59Zm85.17-12.38c-1.13-1.1-2.32-2.16-3.53-3.16l1-1.21c1.25,1,2.48,2.12,3.63,3.25Zm-79.85,4.55-1.21-1c1-1.26,2.11-2.48,3.23-3.64l1.12,1.08C276.36,97.35,275.3,98.54,274.31,99.76Zm72.53-10.55c-1.3-.88-2.66-1.72-4-2.49l.77-1.36c1.41.79,2.8,1.65,4.14,2.57ZM280.89,93l-1-1.18c1.23-1.06,2.51-2.08,3.82-3L284.6,90C283.33,91,282.08,91.94,280.89,93Zm57.7-8.39c-1.44-.65-2.92-1.24-4.4-1.76l.52-1.47c1.52.53,3,1.14,4.52,1.81Zm-50,2.85-.79-1.34c1.38-.83,2.83-1.61,4.28-2.31l.68,1.4C291.31,85.87,289.9,86.62,288.55,87.43Zm41.11-6c-1.53-.39-3.09-.72-4.64-1l.25-1.54c1.6.26,3.2.6,4.77,1Zm-32.59,1.86-.55-1.46c1.51-.57,3.07-1.08,4.63-1.52l.42,1.5C300.05,82.26,298.54,82.75,297.07,83.31Zm23.25-3.38c-1.57-.12-3.16-.16-4.73-.14l0-1.56c1.61,0,3.25,0,4.86.14Zm-14.14.82-.29-1.54c1.59-.3,3.21-.53,4.81-.7l.16,1.55C309.3,80.22,307.72,80.45,306.18,80.75Z" fill="#3f5a9f"/><path d="M371.47,126.1l-1.54.22c-.11-.77-.24-1.53-.38-2.28l1.54-.28C371.23,124.53,371.36,125.31,371.47,126.1Z" fill="#3f5a9f"/><polygon points="266.94 132.91 261.27 135.62 255.4 133.42 261.76 146.84 266.94 132.91" fill="#3f5a9f"/><path d="M213.78,210.06c-.23-3.55,1.22-7.73,2.16-7.31s.07,3.73.73,4.73c.87,1.31,1.62,2.54,1,5.63Z" fill="#fcb47e"/><polygon points="181.78 457.86 178.95 434.98 195.72 434.98 196.46 457.86 181.78 457.86" fill="#fcb47e"/><path d="M196.14,448c-6.34,1.66-15.75-1.35-15.75-1.35l-.67-5.44L196,442.55Z" fill="#fca377"/><polygon points="101.79 457.86 103.34 434.98 120.11 434.98 116.47 457.86 101.79 457.86" fill="#fcb47e"/><path d="M119.33,439.87l-1.15,7.22a26.12,26.12,0,0,1-15.4-3.78l.48-7Z" fill="#fca377"/><path d="M217.46,443.52s-11.2-140.67-41.45-209l-28.12,1.41s2.4,99,23.5,207.64C171.39,443.52,197.78,449.78,217.46,443.52Z" fill="#3f5a9f"/><path d="M137.78,443.52s-27.67,4.47-43.45-6.26c0,0,8.4-152.52,34.14-202.53h30.27S157.75,316.94,137.78,443.52Z" fill="#3f5a9f"/><path d="M129.14,162.32c.75-2.66,2.15-6.06,2.15-6.06a33.33,33.33,0,0,0-.45,6.89c6.57,3,20.3,6.94,41.61,1.73-.27-2.19-.39-4.27-.39-4.27a29.49,29.49,0,0,0,1.44,4l2.3-.62a58,58,0,0,1-.91-7.41,34.35,34.35,0,0,0,2.84,6.86c1.3-.39,2.62-.81,4-1.27,0,0-4.25-6.48-7-23.35-2.3-13.87-9.41-20.42-20.22-20.13-22.23.6-28.16,41.85-28.16,41.85A21.25,21.25,0,0,0,129.14,162.32Z" fill="#374263"/><path d="M206,211.25s-8.9-40.11-44.33-42.18c-54.52-3.19-71.27,32.27-71.27,32.27Z" fill="#fff"/><path d="M149.55,128.87c6-3.44,16.59-3.59,19,4.56,2.23,7.51,1.88,30.18-8.18,29.75-10.52-.45-13.84-8.45-14.77-13.33C145.26,148.09,143.53,132.31,149.55,128.87Z" fill="#fcb47e"/><path d="M145.85,149.45s-4.7,1.45-5.58-2.78c-.79-3.81,3.74-5.29,5.19-3.63Z" fill="#fcb47e"/><path d="M210.93,259.55c6.74-13.19,12-44,12-44,.79-1.21,4.06-6.46,4.26-10.46.09-1.78-.81-2.83-2-2.25-.43-1.44-1.29-1.71-2.45-.86-.64-1.27-1.43-1.22-2.22-.6-1.72-2.88-5.15,6.26-5.14,7.4,0,.77.25,3.58.36,4.41.16,1.1-20.21,35.81-20.21,35.81Z" fill="#fcb47e"/><path d="M99.83,439.73l-.91-.06c.1-1.53,10.35-153.09,36.37-202.34l.8.42C110.16,286.83,99.93,438.2,99.83,439.73Z" fill="#fff"/><path d="M121.89,210.3l-9.54,54.57c24.9,7.48,53,.76,76-14.49l-9.52-53.81-17.71-27s-8.63,9.85-18.15-.22l-24.79,10.39Z" fill="#fff"/><path d="M212.54,222.13l-5-12.47s-12.58-25.57-22.93-32.19L178,222.23Z" fill="#fff"/><path d="M153.74,320.91l-.89-.09c1.43-15.28,2.62-30.23,3.54-44.42l.89.05C156.36,290.66,155.17,305.61,153.74,320.91Z" fill="#47393d"/><path d="M178.1,443.83c-.19-.9-18.85-90.44-24.16-135.56l.9-.1c5.3,45.08,24,134.58,24.15,135.48Z" fill="#fff"/><rect x="183.13" y="196.17" width="0.88" height="54.65" transform="matrix(0.98, -0.17, 0.17, 0.98, -36.05, 35.3)" fill="#3f5a9f"/><path d="M142,142.2a2.75,2.75,0,0,1,3.36.81,20.22,20.22,0,0,1,1.64-5.8l.76,4a70.4,70.4,0,0,0,9.34.91c1.2,0,4.57,0,4.57,0l.77-6.63,1.43,6.5c1-.08,1.76-.19,2.55-.29l.56-3.9,1.09,3.67c1.06-.18,1.8-.34,2.15-.42.22-2.79.31-10.3-4.66-14.66-5.7-5-17.76-2.25-20.55,3.74A34.83,34.83,0,0,0,142,142.2Z" fill="#374263"/><path d="M153.27,174c5,0,8-4.36,8-4.36L160,155.16,146.25,147l-3.47,22.39S147.08,174,153.27,174Z" fill="#fcb47e"/><path d="M159.9,164l0-.88c-6.25-.26-10.25-5-12.51-9l-.76.44C149,158.69,153.25,163.7,159.9,164Z" fill="#374263"/><path d="M178,468.62l42.39.16a2.54,2.54,0,0,0,2.55-2.71V466q0-.48-.12-1a6.56,6.56,0,0,0-1-3c-2-2.68-5.9-3.91-12.84-6.69a56.54,56.54,0,0,1-9.68-5.15,1.32,1.32,0,0,0-1.67.17c-8.42,8.17-13.56,6.4-15.09,3-1.16-2.58-2.83-2-3.3-1.29-1.42,2.35-2.22,9.27-2.55,12.74,0,.38-.07.72-.09,1l-.08,1A1.48,1.48,0,0,0,178,468.62Z" fill="#374263"/><path d="M206.55,459.81a4.52,4.52,0,0,0,2.57-4.59l-.72.11a3.74,3.74,0,0,1-2.17,3.82Z" fill="#fff"/><path d="M210.26,461.07a4.57,4.57,0,0,0,2.48-4.36l-.73.08a3.84,3.84,0,0,1-2.11,3.64Z" fill="#fff"/><path d="M186.34,459.14a13.36,13.36,0,0,0,5.45-1.3l-.33-.65c-.07,0-6.51,3.24-9.8-.89l-.57.46A6.42,6.42,0,0,0,186.34,459.14Z" fill="#fff"/><rect x="193.74" y="453.4" width="0.73" height="24.7" transform="translate(-272.35 658.14) rotate(-89.79)" fill="#fff"/><rect x="212.18" y="462.89" width="0.73" height="5.84" transform="translate(-254.04 676.64) rotate(-89.79)" fill="#fff"/><path d="M98.56,468.62l42.39.16a2.55,2.55,0,0,0,2.56-2.71V466c0-.32-.06-.65-.11-1a6.68,6.68,0,0,0-1-3c-2-2.68-5.9-3.91-12.84-6.69a55.75,55.75,0,0,1-9.68-5.15,1.33,1.33,0,0,0-1.68.17c-8.41,8.17-13.56,6.4-15.08,3-1.17-2.58-2.84-2-3.3-1.29-1.42,2.35-2.22,9.27-2.55,12.74,0,.38-.07.72-.09,1l-.08,1A1.47,1.47,0,0,0,98.56,468.62Z" fill="#374263"/><path d="M127.16,459.81a4.54,4.54,0,0,0,2.58-4.59l-.73.11a3.72,3.72,0,0,1-2.17,3.82Z" fill="#fff"/><path d="M130.88,461.07a4.55,4.55,0,0,0,2.47-4.36l-.73.08a3.82,3.82,0,0,1-2.1,3.64Z" fill="#fff"/><path d="M107,459.14a13.42,13.42,0,0,0,5.45-1.3l-.34-.65c-.06,0-6.5,3.24-9.79-.89l-.58.46A6.45,6.45,0,0,0,107,459.14Z" fill="#fff"/><rect x="114.36" y="453.4" width="0.74" height="24.7" transform="translate(-351.45 578.75) rotate(-89.79)" fill="#fff"/><rect x="132.8" y="462.89" width="0.74" height="5.84" transform="translate(-333.14 597.26) rotate(-89.79)" fill="#fff"/><path d="M123.75,326.11l141.59-22.36a5.38,5.38,0,0,0,4.47-6.13l-14.39-91.13a5.38,5.38,0,0,0-6.14-4.46L107.69,224.38a5.39,5.39,0,0,0-4.47,6.14l14.39,91.13A5.38,5.38,0,0,0,123.75,326.11Z" fill="#6d92f0"/><path d="M151.73,289.12l-25.49,4a1.45,1.45,0,0,1-1.66-1.2l-.77-4.9a1.46,1.46,0,0,1,1.21-1.67l25.49-4a1.45,1.45,0,0,1,1.66,1.21l.77,4.9A1.45,1.45,0,0,1,151.73,289.12Z" fill="#fff"/><path d="M185.43,283.8l-25.49,4a1.44,1.44,0,0,1-1.66-1.2l-.78-4.9a1.47,1.47,0,0,1,1.21-1.67l25.49-4a1.45,1.45,0,0,1,1.66,1.21l.78,4.9A1.46,1.46,0,0,1,185.43,283.8Z" fill="#fff"/><path d="M219.12,278.48l-25.49,4A1.46,1.46,0,0,1,192,281.3l-.78-4.9a1.46,1.46,0,0,1,1.21-1.66l25.49-4a1.46,1.46,0,0,1,1.66,1.21l.78,4.9A1.46,1.46,0,0,1,219.12,278.48Z" fill="#fff"/><path d="M252.81,273.16l-25.49,4a1.46,1.46,0,0,1-1.66-1.21l-.77-4.9a1.45,1.45,0,0,1,1.21-1.66l25.49-4a1.47,1.47,0,0,1,1.66,1.21l.77,4.9A1.46,1.46,0,0,1,252.81,273.16Z" fill="#fff"/><path d="M254.9,288.41l-33.54,5.29a1.76,1.76,0,0,1-2-1.47l-.67-4.27a1.79,1.79,0,0,1,1.47-2l33.53-5.29a1.78,1.78,0,0,1,2,1.47l.67,4.28A1.77,1.77,0,0,1,254.9,288.41Z" fill="#fff"/><path d="M125,252.42l-1.61-10.2a4.1,4.1,0,0,1,3.41-4.68l19.82-3.13a4.1,4.1,0,0,1,4.69,3.4L152.89,248a4.1,4.1,0,0,1-3.41,4.68l-19.82,3.13A4.11,4.11,0,0,1,125,252.42Zm2-13.8a3,3,0,0,0-2.49,3.43l1.61,10.2a3,3,0,0,0,3.43,2.49l19.82-3.13a3,3,0,0,0,2.49-3.42L150.19,238a3,3,0,0,0-3.43-2.49Z" fill="#fff"/><rect x="257.72" y="213.06" width="1" height="22.1" transform="translate(-31.8 43.02) rotate(-8.97)" fill="#2e4882"/><path d="M185.14,316.92l-.15-1,80.27-12.67a4.87,4.87,0,0,0,4.05-5.56l-7-44.19,1-.15,7,44.18a5.89,5.89,0,0,1-4.88,6.71Z" fill="#2e4882"/><rect x="141.33" y="320.44" width="30.1" height="1" transform="translate(-48.18 28.35) rotate(-8.98)" fill="#2e4882"/><path d="M226.1,202.74a1.06,1.06,0,0,1,.65,1.47c-.49,1-1.31,2.16-1.88,2.2-1,.06-.5-1.67-.11-3a1.06,1.06,0,0,1,1.34-.71Z" fill="#fcb47e"/><path d="M224.36,202.71a1.08,1.08,0,0,1,.41,1.29c-.44,1.17-1.4,2.87-2.36,2.72-.61-.1-.21-1.94.19-3.43a1.16,1.16,0,0,1,1.76-.58Z" fill="#fcb47e"/><path d="M221.84,202.09a1.07,1.07,0,0,1,.84,1.26c-.25,1.25-.88,2.88-2.17,3.35-1.11.39-.48-2.23-.08-3.85a1.07,1.07,0,0,1,1.27-.79Z" fill="#fcb47e"/><path d="M219.78,200.7a1.35,1.35,0,0,1,.93,1.93c-.5,1.26-1.36,2.69-2.16,2.89s-.38-1.91-.1-3.52C218.57,201.27,219.13,200.59,219.78,200.7Z" fill="#fcb47e"/><path d="M111.92,257.82S95.35,233.56,121,216.27L135.68,175v-.27c-17.21-.09-35.69,10.44-45.7,25.19C73.24,224.53,74.93,254,103,269.23Z" fill="#fff"/><polygon points="120.32 221.44 119.43 221.26 121.94 208.55 122.83 208.73 120.32 221.44" fill="#3f5a9f"/><path d="M109.08,269.63c-12.08-6.56-20-16.17-22.79-27.81-3.23-13.28.2-28.27,9.66-42.21l.75.51c-9.32,13.73-12.7,28.46-9.53,41.48,2.77,11.39,10.5,20.8,22.34,27.23Z" fill="#3f5a9f"/><path d="M110.35,259.82c.84.68,3.46,2.93,4.53,3.11s6.41.4,6.26,1.54-3.87.27-3.83,1.24c0,.6,7.26,2.55,6.53,3.82-.48.83-4.7-.95-4.78-.43s5.57,1.6,4.93,2.86-6.12-2-6.4-1.39c-.14.32,6.47,2.69,5.92,3.71-.74,1.37-5.82-2-6.21-1.4-.2.29,1.81,1.16,2.94,1.82.62.37.43.94-.07.92-5.1-.23-11.51-6.44-12.33-6.74-1.22-.43-2.4-.88-3.55-1.35Z" fill="#fcb47e"/><path d="M110.52,227.59l-.79-.45a35.26,35.26,0,0,1,11-11.25l.51.75A34.27,34.27,0,0,0,110.52,227.59Z" fill="#3f5a9f"/><path d="M650.51,177l0,1c1.24,42.53-3.12,75.68-10.51,101.51l-21.91,13.62,18-2.79.52-.08c-9.78,28.39-23.3,46.73-36.07,58.53a93.32,93.32,0,0,1-21.89,15.29l-1.22.6c-1,.49-2,.92-2.93,1.32l-12,.63c-.17-.56-.33-1.11-.47-1.68-.11-.35-.2-.7-.29-1s-.25-.93-.37-1.4c-14.25-54.89,3.71-98.68,27.16-129.89a1.66,1.66,0,0,1,.23-.31,212.61,212.61,0,0,1,25.34-27.88L619.43,218l.76-19a209.39,209.39,0,0,1,29.61-21.61Z" fill="#9aade5"/><polygon points="650.94 177.17 650.54 178.01 625.78 229.84 625.34 230.76 618.59 244.89 618.36 245.36 596.84 290.42 596.81 290.48 561.74 363.91 561.21 365 560.38 366.75 559.33 366.81 560.15 365.06 561.37 362.51 595.98 290.06 596.62 288.71 649.81 177.38 650.1 176.76 650.94 177.17" fill="#fff"/><rect x="615.16" y="234.56" width="37.25" height="0.81" transform="translate(-21.56 400.55) rotate(-34.52)" fill="#fff"/><rect x="622.69" y="221.98" width="29.2" height="0.81" transform="translate(-13.81 400.32) rotate(-34.52)" fill="#fff"/><rect x="592.28" y="232.03" width="0.81" height="58.73" transform="translate(-28.69 78.39) rotate(-7.39)" fill="#fff"/><path d="M557.65,376.06s28.58,13.5,69.22-10.74l-13.18-6.26,21.52.87c15.86-11.1,33.28-28,51.36-53.48l-5-2.38,6.52.26q4.58-6.52,9.19-13.81a157.78,157.78,0,0,0-29,.91l-8.76,11.87,2.48-11C627.08,297.57,576.28,315.86,557.65,376.06Z" fill="#bac8f3"/><rect x="544.29" y="331.52" width="164.22" height="0.92" transform="translate(-81.92 361.43) rotate(-30.3)" fill="#fff"/><rect x="670.02" y="303.28" width="0.85" height="20.4" transform="translate(289.89 948.27) rotate(-84.12)" fill="#fff"/><rect x="662.02" y="307.99" width="0.85" height="24.04" transform="translate(231.2 916.05) rotate(-79.9)" fill="#fff"/><path d="M591.05,324l-.71-.81c11.9-10.57,26.39-18.82,43.06-24.51l.34,1C617.21,305.29,602.85,313.46,591.05,324Z" fill="#2e4882"/><path d="M307.14,256.25c.05.35.1.69.14,1,5.88,42.14,15.72,74.09,27.31,98.33l23.89,9.77-18.24.26h-.52c14.38,26.36,30.77,42.18,45.34,51.68a93.54,93.54,0,0,0,24.13,11.42l1.31.39c1.08.31,2.12.57,3.1.81l12-1.39c.06-.59.13-1.16.18-1.74,0-.36.08-.72.1-1.09s.1-1,.14-1.43c4.87-56.51-20.14-96.68-48.48-123.54a2.38,2.38,0,0,0-.28-.26,211.05,211.05,0,0,0-29.64-23.25l-3,14.26-3.93-18.61a209.85,209.85,0,0,0-32.81-16.37Z" fill="#9aade5"/><polygon points="306.75 256.52 307.29 257.28 340.35 304.25 340.94 305.08 349.95 317.89 350.26 318.31 379 359.14 379.05 359.2 425.88 425.73 426.59 426.73 427.7 428.31 428.75 428.19 427.64 426.61 426.02 424.3 379.79 358.64 378.93 357.42 307.9 256.53 307.51 255.98 306.75 256.52" fill="#fff"/><rect x="332.89" y="291.98" width="0.81" height="37.25" transform="translate(-88.78 482.11) rotate(-65.1)" fill="#fff"/><rect x="327.33" y="284.24" width="0.81" height="29.2" transform="translate(-81.33 470.26) rotate(-65.1)" fill="#fff"/><rect x="377.85" y="300.46" width="0.81" height="58.72" transform="translate(-12.54 14.96) rotate(-2.23)" fill="#fff"/><path d="M431.94,437s-25.91,18.08-70,1l12-8.37-21.07,4.44c-17.49-8.29-37.49-22.06-59.56-44.14l4.56-3.19-6.39,1.34Q285.8,382.42,280,376a158.42,158.42,0,0,1,28.75-3.94l10.61,10.23-4.28-10.44C350.38,371.25,403.52,380.79,431.94,437Z" fill="#bac8f3"/><rect x="356.36" y="322.92" width="0.91" height="164.21" transform="translate(-148.15 595.74) rotate(-69.31)" fill="#fff"/><rect x="300.04" y="393.73" width="20.4" height="0.85" transform="translate(-94.07 97.27) rotate(-15.5)" fill="#fff"/><rect x="307.24" y="398.89" width="24.04" height="0.85" transform="translate(-116.01 131.13) rotate(-19.72)" fill="#fff"/><path d="M390.31,391.23l.57-.91c-13.5-8.44-29.16-14.15-46.55-17l-.17,1.06C361.4,377.21,376.93,382.87,390.31,391.23Z" fill="#2e4882"/><path d="M437.64,463.23H408.73a17.45,17.45,0,0,1-17.54-16.6L374.88,162.11a17.42,17.42,0,0,1,17.54-18h33.34Z" fill="#446bd0"/><path d="M580.44,162.11,571.9,446.63a17.44,17.44,0,0,1-17.54,16.6H426.53c-9.42,0-20.5-7.32-20.89-16.6l-8.53-284.52a17.42,17.42,0,0,1,17.54-18H562.9A17.42,17.42,0,0,1,580.44,162.11Z" fill="#dce8ff"/><path d="M432.4,163.75h-6.85a3.36,3.36,0,0,0-2.41,1,3.42,3.42,0,0,0,2.41,5.84h125.5a3.45,3.45,0,0,0,3.42-3.42,3.43,3.43,0,0,0-3.42-3.43H432.4Z" fill="#3f5a9f"/><path d="M549.64,275.73H427.91a4.32,4.32,0,0,1-4.32-4.16l-3-79.2a4.32,4.32,0,0,1,4.32-4.49H552.66a4.32,4.32,0,0,1,4.32,4.49l-3,79.2A4.33,4.33,0,0,1,549.64,275.73Z" fill="#fff"/><path d="M458.25,329.21H439.43a6,6,0,0,1-6-6v-8.56a6,6,0,0,1,6-6h18.82a6,6,0,0,1,6,6v8.56A6,6,0,0,1,458.25,329.21Z" fill="#647ce2"/><path d="M458.25,362.72H439.43a6,6,0,0,1-6-6v-8.56a6,6,0,0,1,6-6h18.82a6,6,0,0,1,6,6v8.56A6,6,0,0,1,458.25,362.72Z" fill="#647ce2"/><path d="M458.25,396.23H439.43a6,6,0,0,1-6-6v-8.55a6,6,0,0,1,6-6h18.82a6,6,0,0,1,6,6v8.55A6,6,0,0,1,458.25,396.23Z" fill="#647ce2"/><path d="M458.25,429.74H439.43a6,6,0,0,1-6-6V415.2a6,6,0,0,1,6-6h18.82a6,6,0,0,1,6,6v8.55A6,6,0,0,1,458.25,429.74Z" fill="#3f5a9f"/><path d="M497.35,329.21H478.53a6,6,0,0,1-6-6v-8.56a6,6,0,0,1,6-6h18.82a6,6,0,0,1,6,6v8.56A6,6,0,0,1,497.35,329.21Z" fill="#647ce2"/><path d="M497.35,362.72H478.53a6,6,0,0,1-6-6v-8.56a6,6,0,0,1,6-6h18.82a6,6,0,0,1,6,6v8.56A6,6,0,0,1,497.35,362.72Z" fill="#647ce2"/><path d="M497.35,396.23H478.53a6,6,0,0,1-6-6v-8.55a6,6,0,0,1,6-6h18.82a6,6,0,0,1,6,6v8.55A6,6,0,0,1,497.35,396.23Z" fill="#647ce2"/><path d="M497.35,429.74H478.53a6,6,0,0,1-6-6V415.2a6,6,0,0,1,6-6h18.82a6,6,0,0,1,6,6v8.55A6,6,0,0,1,497.35,429.74Z" fill="#647ce2"/><path d="M536.45,329.21H517.62a6,6,0,0,1-6-6v-8.56a6,6,0,0,1,6-6h18.83a6,6,0,0,1,6,6v8.56A6,6,0,0,1,536.45,329.21Z" fill="#647ce2"/><path d="M536.45,362.72H517.62a6,6,0,0,1-6-6v-8.56a6,6,0,0,1,6-6h18.83a6,6,0,0,1,6,6v8.56A6,6,0,0,1,536.45,362.72Z" fill="#647ce2"/><path d="M536.45,396.23H517.62a6,6,0,0,1-6-6v-8.55a6,6,0,0,1,6-6h18.83a6,6,0,0,1,6,6v8.55A6,6,0,0,1,536.45,396.23Z" fill="#647ce2"/><path d="M536.45,429.74H517.62a6,6,0,0,1-6-6V415.2a6,6,0,0,1,6-6h18.83a6,6,0,0,1,6,6v8.55A6,6,0,0,1,536.45,429.74Z" fill="#3f5a9f"/><path d="M463.84,329.21H445a6,6,0,0,1-6-6v-8.56a6,6,0,0,1,6-6h18.83a6,6,0,0,1,6,6v8.56A6,6,0,0,1,463.84,329.21Z" fill="#6d92f0"/><path d="M463.84,362.72H445a6,6,0,0,1-6-6v-8.56a6,6,0,0,1,6-6h18.83a6,6,0,0,1,6,6v8.56A6,6,0,0,1,463.84,362.72Z" fill="#6d92f0"/><path d="M463.84,396.23H445a6,6,0,0,1-6-6v-8.55a6,6,0,0,1,6-6h18.83a6,6,0,0,1,6,6v8.55A6,6,0,0,1,463.84,396.23Z" fill="#6d92f0"/><path d="M463.84,429.74H445a6,6,0,0,1-6-6V415.2a6,6,0,0,1,6-6h18.83a6,6,0,0,1,6,6v8.55A6,6,0,0,1,463.84,429.74Z" fill="#3f5a9f"/><path d="M502.93,329.21H484.11a6,6,0,0,1-6-6v-8.56a6,6,0,0,1,6-6h18.82a6,6,0,0,1,6,6v8.56A6,6,0,0,1,502.93,329.21Z" fill="#6d92f0"/><path d="M502.93,362.72H484.11a6,6,0,0,1-6-6v-8.56a6,6,0,0,1,6-6h18.82a6,6,0,0,1,6,6v8.56A6,6,0,0,1,502.93,362.72Z" fill="#6d92f0"/><path d="M502.93,396.23H484.11a6,6,0,0,1-6-6v-8.55a6,6,0,0,1,6-6h18.82a6,6,0,0,1,6,6v8.55A6,6,0,0,1,502.93,396.23Z" fill="#6d92f0"/><path d="M502.93,429.74H484.11a6,6,0,0,1-6-6V415.2a6,6,0,0,1,6-6h18.82a6,6,0,0,1,6,6v8.55A6,6,0,0,1,502.93,429.74Z" fill="#6d92f0"/><path d="M542,329.21H523.21a6,6,0,0,1-6-6v-8.56a6,6,0,0,1,6-6H542a6,6,0,0,1,6,6v8.56A6,6,0,0,1,542,329.21Z" fill="#6d92f0"/><path d="M542,362.72H523.21a6,6,0,0,1-6-6v-8.56a6,6,0,0,1,6-6H542a6,6,0,0,1,6,6v8.56A6,6,0,0,1,542,362.72Z" fill="#6d92f0"/><path d="M542,396.23H523.21a6,6,0,0,1-6-6v-8.55a6,6,0,0,1,6-6H542a6,6,0,0,1,6,6v8.55A6,6,0,0,1,542,396.23Z" fill="#6d92f0"/><path d="M542,429.74H523.21a6,6,0,0,1-6-6V415.2a6,6,0,0,1,6-6H542a6,6,0,0,1,6,6v8.55A6,6,0,0,1,542,429.74Z" fill="#3f5a9f"/><path d="M463.84,329.76H445a6.55,6.55,0,0,1-6.55-6.54v-8.56a6.56,6.56,0,0,1,6.55-6.55h18.83a6.55,6.55,0,0,1,6.54,6.55v8.56A6.54,6.54,0,0,1,463.84,329.76ZM445,309.23a5.44,5.44,0,0,0-5.43,5.43v8.56a5.44,5.44,0,0,0,5.43,5.43h18.83a5.44,5.44,0,0,0,5.43-5.43v-8.56a5.44,5.44,0,0,0-5.43-5.43Z" fill="#fff"/><path d="M463.84,363.28H445a6.56,6.56,0,0,1-6.55-6.55v-8.56a6.56,6.56,0,0,1,6.55-6.55h18.83a6.55,6.55,0,0,1,6.54,6.55v8.56A6.55,6.55,0,0,1,463.84,363.28ZM445,342.74a5.44,5.44,0,0,0-5.43,5.43v8.56a5.44,5.44,0,0,0,5.43,5.43h18.83a5.44,5.44,0,0,0,5.43-5.43v-8.56a5.44,5.44,0,0,0-5.43-5.43Z" fill="#fff"/><path d="M463.84,396.79H445a6.56,6.56,0,0,1-6.55-6.55v-8.55a6.55,6.55,0,0,1,6.55-6.55h18.83a6.54,6.54,0,0,1,6.54,6.55v8.55A6.55,6.55,0,0,1,463.84,396.79ZM445,376.26a5.44,5.44,0,0,0-5.43,5.43v8.55a5.44,5.44,0,0,0,5.43,5.43h18.83a5.44,5.44,0,0,0,5.43-5.43v-8.55a5.44,5.44,0,0,0-5.43-5.43Z" fill="#fff"/><path d="M463.84,430.3H445a6.55,6.55,0,0,1-6.55-6.54V415.2a6.56,6.56,0,0,1,6.55-6.55h18.83a6.55,6.55,0,0,1,6.54,6.55v8.56A6.54,6.54,0,0,1,463.84,430.3ZM445,409.77a5.44,5.44,0,0,0-5.43,5.43v8.56a5.44,5.44,0,0,0,5.43,5.43h18.83a5.44,5.44,0,0,0,5.43-5.43V415.2a5.44,5.44,0,0,0-5.43-5.43Z" fill="#fff"/><path d="M502.93,329.76H484.11a6.55,6.55,0,0,1-6.55-6.54v-8.56a6.56,6.56,0,0,1,6.55-6.55h18.82a6.55,6.55,0,0,1,6.55,6.55v8.56A6.54,6.54,0,0,1,502.93,329.76Zm-18.82-20.53a5.44,5.44,0,0,0-5.43,5.43v8.56a5.44,5.44,0,0,0,5.43,5.43h18.83a5.44,5.44,0,0,0,5.43-5.43v-8.56a5.44,5.44,0,0,0-5.43-5.43Z" fill="#fff"/><path d="M502.93,363.28H484.11a6.56,6.56,0,0,1-6.55-6.55v-8.56a6.56,6.56,0,0,1,6.55-6.55h18.82a6.55,6.55,0,0,1,6.55,6.55v8.56A6.55,6.55,0,0,1,502.93,363.28Zm-18.82-20.54a5.44,5.44,0,0,0-5.43,5.43v8.56a5.44,5.44,0,0,0,5.43,5.43h18.83a5.44,5.44,0,0,0,5.43-5.43v-8.56a5.44,5.44,0,0,0-5.43-5.43Z" fill="#fff"/><path d="M502.93,396.79H484.11a6.56,6.56,0,0,1-6.55-6.55v-8.55a6.55,6.55,0,0,1,6.55-6.55h18.82a6.55,6.55,0,0,1,6.55,6.55v8.55A6.55,6.55,0,0,1,502.93,396.79Zm-18.82-20.53a5.44,5.44,0,0,0-5.43,5.43v8.55a5.43,5.43,0,0,0,5.43,5.43h18.83a5.44,5.44,0,0,0,5.43-5.43v-8.55a5.44,5.44,0,0,0-5.43-5.43Z" fill="#fff"/><path d="M502.93,430.3H484.11a6.55,6.55,0,0,1-6.55-6.54V415.2a6.56,6.56,0,0,1,6.55-6.55h18.82a6.55,6.55,0,0,1,6.55,6.55v8.56A6.54,6.54,0,0,1,502.93,430.3Zm-18.82-20.53a5.44,5.44,0,0,0-5.43,5.43v8.56a5.44,5.44,0,0,0,5.43,5.43h18.83a5.44,5.44,0,0,0,5.43-5.43V415.2a5.44,5.44,0,0,0-5.43-5.43Z" fill="#fff"/><path d="M542,329.76H523.21a6.55,6.55,0,0,1-6.55-6.54v-8.56a6.56,6.56,0,0,1,6.55-6.55H542a6.56,6.56,0,0,1,6.55,6.55v8.56A6.55,6.55,0,0,1,542,329.76Zm-18.82-20.53a5.44,5.44,0,0,0-5.43,5.43v8.56a5.44,5.44,0,0,0,5.43,5.43H542a5.44,5.44,0,0,0,5.43-5.43v-8.56a5.43,5.43,0,0,0-5.43-5.43Z" fill="#fff"/><path d="M542,363.28H523.21a6.56,6.56,0,0,1-6.55-6.55v-8.56a6.56,6.56,0,0,1,6.55-6.55H542a6.56,6.56,0,0,1,6.55,6.55v8.56A6.56,6.56,0,0,1,542,363.28Zm-18.82-20.54a5.44,5.44,0,0,0-5.43,5.43v8.56a5.44,5.44,0,0,0,5.43,5.43H542a5.44,5.44,0,0,0,5.43-5.43v-8.56a5.44,5.44,0,0,0-5.43-5.43Z" fill="#fff"/><path d="M542,396.79H523.21a6.56,6.56,0,0,1-6.55-6.55v-8.55a6.55,6.55,0,0,1,6.55-6.55H542a6.55,6.55,0,0,1,6.55,6.55v8.55A6.56,6.56,0,0,1,542,396.79Zm-18.82-20.53a5.43,5.43,0,0,0-5.43,5.43v8.55a5.43,5.43,0,0,0,5.43,5.43H542a5.43,5.43,0,0,0,5.43-5.43v-8.55a5.43,5.43,0,0,0-5.43-5.43Z" fill="#fff"/><path d="M542,430.3H523.21a6.55,6.55,0,0,1-6.55-6.54V415.2a6.56,6.56,0,0,1,6.55-6.55H542a6.56,6.56,0,0,1,6.55,6.55v8.56A6.55,6.55,0,0,1,542,430.3Zm-18.82-20.53a5.43,5.43,0,0,0-5.43,5.43v8.56a5.44,5.44,0,0,0,5.43,5.43H542a5.44,5.44,0,0,0,5.43-5.43V415.2a5.43,5.43,0,0,0-5.43-5.43Z" fill="#fff"/><path d="M538.83,464H426.53c-9.67,0-21.23-7.56-21.64-17.32l-8.53-284.53a17.77,17.77,0,0,1,5-13.15,18.29,18.29,0,0,1,13.3-5.65H562.9A18.29,18.29,0,0,1,576.2,149a17.81,17.81,0,0,1,5,13.16l-.47,15.52-1.5,0,.47-15.53A16.29,16.29,0,0,0,575.11,150a16.73,16.73,0,0,0-12.21-5.19H414.65A16.73,16.73,0,0,0,402.44,150a16.28,16.28,0,0,0-4.58,12.06l8.53,284.53c.37,8.93,11.13,15.87,20.14,15.87h112.3Z" fill="#3f5a9f"/><rect x="493.43" y="303.26" width="165.52" height="1.5" transform="translate(255.09 870.85) rotate(-88.29)" fill="#3f5a9f"/><path d="M544.15,109v61.57H432.55V109a16.18,16.18,0,0,0-5.15-10.78,16.48,16.48,0,0,0-11.22-4.41H527.79A16.42,16.42,0,0,1,539,98.24,16.05,16.05,0,0,1,544.15,109Z" fill="#fff"/><path d="M432.55,109H399.8A16.15,16.15,0,0,1,405,98.24a16.48,16.48,0,0,1,22.44,0A16.18,16.18,0,0,1,432.55,109Z" fill="#2e4882"/><path d="M544.65,171.09H432.05V109a15.56,15.56,0,0,0-5-10.41,15.92,15.92,0,0,0-10.87-4.28v-1H527.79a16.94,16.94,0,0,1,11.55,4.54A16.55,16.55,0,0,1,544.65,109v62.1Zm-111.6-1h110.6V109a15.52,15.52,0,0,0-5-10.43,16,16,0,0,0-10.88-4.28H421.92a17.07,17.07,0,0,1,5.82,3.54A16.64,16.64,0,0,1,433.05,109Z" fill="#2e4882"/><path d="M551.05,171.1H425.56a3.92,3.92,0,0,1-2.77-6.7,3.85,3.85,0,0,1,2.77-1.15h6.84v1h-6.84a2.82,2.82,0,0,0-2.06.86,2.88,2.88,0,0,0-.86,2.07,2.92,2.92,0,0,0,2.92,2.92H551.05a2.94,2.94,0,0,0,2.92-2.92,2.93,2.93,0,0,0-2.92-2.93H544.2v-1h6.85a3.93,3.93,0,0,1,3.92,3.93,3.94,3.94,0,0,1-3.92,3.92Z" fill="#2e4882"/><path d="M555.8,467.56c0,2.77,20.32,5,45.37,5s45.37-2.25,45.37-5a.89.89,0,0,0,0-.15V453.85H555.83v13.53A.57.57,0,0,0,555.8,467.56Z" fill="#f49b51"/><ellipse cx="601.18" cy="453.97" rx="45.37" ry="5.02" fill="#fcc659"/><path d="M545.08,451.2c0,2.76,20.32,5,45.37,5s45.37-2.26,45.37-5a.68.68,0,0,0,0-.15V437.49H545.11V451A.52.52,0,0,0,545.08,451.2Z" fill="#f49b51"/><ellipse cx="590.45" cy="437.61" rx="45.37" ry="5.02" fill="#fcc659"/><path d="M555.8,434.84c0,2.76,20.32,5,45.37,5s45.37-2.25,45.37-5a.68.68,0,0,0,0-.15V421.12H555.83v13.53A.63.63,0,0,0,555.8,434.84Z" fill="#f49b51"/><ellipse cx="601.18" cy="421.25" rx="45.37" ry="5.02" fill="#fcc659"/><path d="M601.17,473.11c18.45,0,45.91-1.48,45.91-5.55H646c0,1.56-15.39,4.48-44.83,4.48H598v1.07Z" fill="#2e4882"/><path d="M583.18,472.7l.05-1.07c-4.59-.22-8.8-.52-12.52-.89l-.11,1.06C574.34,472.18,578.57,472.48,583.18,472.7Z" fill="#2e4882"/><path d="M619.08,455.54c17-1.55,17-3.7,17-4.41h-1.08c0,.53-2.88,2.14-16.07,3.34Z" fill="#2e4882"/><path d="M590.22,456.69c5.1,0,10.11-.1,14.89-.28l0-1.07c-8.54.33-18,.37-26.77.1l0,1.07C582.16,456.63,586.18,456.69,590.22,456.69Z" fill="#2e4882"/><path d="M567,456l.07-1.07c-4.84-.32-9.06-.73-12.54-1.22l-.16,1.06C557.9,455.25,562.14,455.66,567,456Z" fill="#2e4882"/><path d="M631.68,425.52C646.8,424,646.8,422,646.8,421.3h-1.07s-.39,1.75-14.16,3.16Z" fill="#2e4882"/><path d="M600.89,426.85c5.22,0,10.32-.09,15.17-.29l0-1.07c-4.83.19-9.91.29-15.12.29-9.31,0-18.25-.31-25.85-.9L575,426C582.59,426.54,591.56,426.85,600.89,426.85Z" fill="#2e4882"/><path d="M539.72,418.47c0,2.77,20.32,5,45.37,5s45.37-2.25,45.37-5a.89.89,0,0,0,0-.15V404.76H539.75v13.53A.57.57,0,0,0,539.72,418.47Z" fill="#f49b51"/><ellipse cx="585.09" cy="404.88" rx="45.37" ry="5.02" fill="#fcc659"/><path d="M548.14,404.88c0,1.87,16.54,3.38,37,3.38s37-1.51,37-3.38-16.55-3.37-37-3.37S548.14,403,548.14,404.88Z" fill="#f49b51"/><rect x="507.98" y="120.89" width="24.26" height="3" fill="#e1eaff"/><rect x="447.98" y="120.89" width="48.77" height="3" fill="#e1eaff"/><rect x="476.06" y="133.89" width="56.17" height="3" fill="#e1eaff"/><rect x="447.98" y="133.89" width="21.19" height="3" fill="#e1eaff"/><rect x="498.78" y="147.89" width="22.98" height="3" fill="#e1eaff"/><rect x="447.98" y="147.89" width="41.11" height="3" fill="#e1eaff"/><rect x="456.96" y="274.98" width="30.41" height="1.5" fill="#3f5a9f"/><path d="M549.64,276.48H499.17V275h50.47a3.56,3.56,0,0,0,3.57-3.44l2.65-69.32,1.5.06-2.65,69.32A5.06,5.06,0,0,1,549.64,276.48Z" fill="#3f5a9f"/><path d="M268.36,170.66a30.75,30.75,0,1,0,24.15,36.17A30.75,30.75,0,0,0,268.36,170.66Zm18.27,35a24.76,24.76,0,1,1-20.12-29.24l.68.13A24.78,24.78,0,0,1,286.75,205Z" fill="#fcc659"/><path d="M286.75,205c0,.22-.07.45-.12.67a24.76,24.76,0,1,1-20.12-29.24l.68.13A24.78,24.78,0,0,1,286.75,205Z" fill="#f49b51"/><path d="M257.61,219.22l.79-4.59a13.49,13.49,0,0,1-6.61-3.19l1.61-2.86a12.27,12.27,0,0,0,6.21,3.07c3.23.55,5.73-.94,6.17-3.53s-1.08-4.35-4.21-6.28c-4.32-2.62-6.83-5.2-6.15-9.15.64-3.77,3.81-6.18,8.11-6.15l.79-4.59,2.82.49-.76,4.4a12.35,12.35,0,0,1,5.64,2.61l-1.65,2.8a11,11,0,0,0-5.46-2.52c-3.5-.6-5.18,1.26-5.49,3.08-.41,2.37,1.07,3.83,4.75,6.15,4.35,2.71,6.31,5.48,5.62,9.52-.62,3.59-3.69,6.53-8.5,6.5l-.81,4.73Z" fill="#fcc659"/><path d="M286.79,198.72c0-.21,0-.42-.06-.62a24.42,24.42,0,0,0-10.36-17.36l.39-.56A25.1,25.1,0,0,1,287.39,198c0,.26.06.47.07.68Z" fill="#2e4882"/><path d="M276.37,180.74a24.4,24.4,0,0,0-16-4.28l-.06-.67a25.13,25.13,0,0,1,16.43,4.4Z" fill="#2e4882"/><path d="M281.64,217l-.51-.43a24.36,24.36,0,0,0,4.62-8.34l.64.2A25,25,0,0,1,281.64,217Z" fill="#2e4882"/><path d="M285.94,181.65a30.45,30.45,0,0,0-7-6.29l.39-.6a31,31,0,0,1,7.14,6.44Z" fill="#2e4882"/><path d="M275.1,229.21l-.29-.66a30.41,30.41,0,0,0,15.58-39.47l.66-.28a31.11,31.11,0,0,1-15.95,40.41Z" fill="#2e4882"/><circle cx="486.33" cy="231.35" r="28.55" fill="#6d92f0"/><polygon points="485.28 245.89 472.18 232.42 473.62 231.03 484.72 242.44 499 212.84 500.8 213.71 485.28 245.89" fill="#fff"/><path d="M242.41,184a13.37,13.37,0,0,1,6.06,6.35h0a13.35,13.35,0,0,1,6.06-6.36h0a13.39,13.39,0,0,1-6.06-6.36h0A13.41,13.41,0,0,1,242.41,184Z" fill="#ffe6a6"/><path d="M267,223.17a7.77,7.77,0,0,1,3.52,3.69h0a7.82,7.82,0,0,1,3.53-3.7h0a7.79,7.79,0,0,1-3.53-3.69h0A7.75,7.75,0,0,1,267,223.17Z" fill="#ffe6a6"/></g></g></g></svg>