<svg xmlns="http://www.w3.org/2000/svg" xmlns:xlink="http://www.w3.org/1999/xlink" viewBox="0 0 349.18 321.79"><defs><clipPath id="clip-path" transform="translate(-1.8)"><path d="M283.93,25.67,244.81,68a1.44,1.44,0,0,0,.08,2l21.67,20a1.44,1.44,0,0,0,2-.08l7.59-8.21a1.44,1.44,0,0,0-.08-2l-8.43-7.8a1.43,1.43,0,0,1-.08-2L271,66.16a1.44,1.44,0,0,1,2-.08l8.43,7.8a1.44,1.44,0,0,0,2-.08l8.63-9.33a1.44,1.44,0,0,0-.08-2l-8.43-7.8a1.44,1.44,0,0,1-.08-2L287,48.9a1.44,1.44,0,0,1,2-.08l8.43,7.8a1.44,1.44,0,0,0,2-.08l8.22-8.88a1.45,1.45,0,0,0-.08-2L286,25.6a1.42,1.42,0,0,0-2,0S284,25.65,283.93,25.67Z" fill="none"/></clipPath><clipPath id="clip-path-2" transform="translate(-1.8)"><path d="M106.86,286.1a55.8,55.8,0,1,1-28.53-73.59A55.79,55.79,0,0,1,106.86,286.1ZM20.4,248a38.7,38.7,0,1,0,51-19.76l0,0A38.74,38.74,0,0,0,20.4,248Z" fill="none"/></clipPath><clipPath id="clip-path-3" transform="translate(-1.8)"><path d="M237.74,166.73,236,185.09a2.77,2.77,0,0,0,.11.56L261.78,222l32.5-4.31-25.54-56.38c-.71-1.85-4.67-2.85-6.64-3L247.16,157a5.2,5.2,0,0,0-4.64,2.09l-3.76,5.11A5.15,5.15,0,0,0,237.74,166.73Z" fill="none"/></clipPath><clipPath id="clip-path-4" transform="translate(-1.8)"><path d="M178.74,203.06l-7.61,13.21a.86.86,0,0,0-.11.47L173.43,257h21.84a4.29,4.29,0,0,0,4.28-4l2.56-43.93a4.29,4.29,0,0,0-2.17-4l-10.79-6.12a4.27,4.27,0,0,0-4.21,0l-4.58,2.56A4.28,4.28,0,0,0,178.74,203.06Z" fill="none"/></clipPath></defs><g id="Layer_2" data-name="Layer 2"><g id="Layer_1-2" data-name="Layer 1"><g id="Layer_2-2" data-name="Layer 2"><g id="Layer_1-2-2" data-name="Layer 1-2"><g id="OBJECTS"><ellipse cx="54.8" cy="319.09" rx="36.17" ry="2.7" fill="#666a6f" opacity="0.3" style="isolation:isolate"/><path d="M98.59,302a55.81,55.81,0,1,1-3.1-78.87h0A55.86,55.86,0,0,1,98.59,302ZM29.21,237.84a38.69,38.69,0,1,0,54.68-2.14A38.69,38.69,0,0,0,29.21,237.84Z" transform="translate(-1.8)" fill="#7d7f82"/><path d="M283.93,25.67,244.81,68a1.44,1.44,0,0,0,.08,2l21.67,20a1.44,1.44,0,0,0,2-.08l7.59-8.21a1.44,1.44,0,0,0-.08-2l-8.43-7.8a1.43,1.43,0,0,1-.08-2L271,66.16a1.44,1.44,0,0,1,2-.08l8.43,7.8a1.44,1.44,0,0,0,2-.08l8.63-9.33a1.44,1.44,0,0,0-.08-2l-8.43-7.8a1.44,1.44,0,0,1-.08-2L287,48.9a1.44,1.44,0,0,1,2-.08l8.43,7.8a1.44,1.44,0,0,0,2-.08l8.22-8.88a1.45,1.45,0,0,0-.08-2L286,25.6a1.42,1.42,0,0,0-2,0S284,25.65,283.93,25.67Z" transform="translate(-1.8)" fill="#666a6f"/><g clip-path="url(#clip-path)"><polygon points="284.16 25.59 250.34 83.85 241.89 74.06 284.16 25.59" fill="#666a6f" opacity="0.3" style="isolation:isolate"/></g><path d="M213.78,87.13l39.12-42.3a1.44,1.44,0,0,0-.08-2l-21.67-20a1.45,1.45,0,0,0-2,.08l-7.59,8.21a1.45,1.45,0,0,0,.08,2l8.43,7.8a1.43,1.43,0,0,1,.08,2l-3.44,3.72a1.44,1.44,0,0,1-2,.08l-8.43-7.8a1.44,1.44,0,0,0-2,.08l-8.63,9.33a1.44,1.44,0,0,0,.08,2l8.43,7.8a1.43,1.43,0,0,1,.08,2l-3.44,3.72a1.44,1.44,0,0,1-2,.08l-8.43-7.8a1.44,1.44,0,0,0-2,.08L190,65.14a1.44,1.44,0,0,0,.07,2l21.67,20a1.44,1.44,0,0,0,2,0Z" transform="translate(-1.8)" fill="#666a6f"/><path d="M301.17,14,95.62,236.28a5.51,5.51,0,0,1-7.77.3l-5.16-4.76a5.53,5.53,0,0,1-.3-7.78L287.94,1.76a5.52,5.52,0,0,1,7.78-.3l5.15,4.76A5.52,5.52,0,0,1,301.17,14Z" transform="translate(-1.8)" fill="#7d7f82"/><g clip-path="url(#clip-path-2)"><circle cx="53.31" cy="269.32" r="38.75" fill="#666a6f" opacity="0.3" style="isolation:isolate"/></g><path d="M68.36,182.41l1.24-.77a.55.55,0,0,0,.26-.39l.22-1.44a.56.56,0,0,1,1-.21l.77,1.23a.58.58,0,0,0,.39.27l1.44.22a.56.56,0,0,1,.21,1l-1.23.77a.53.53,0,0,0-.26.39l-.22,1.44a.57.57,0,0,1-.69.41.58.58,0,0,1-.31-.2l-.76-1.23a.57.57,0,0,0-.4-.27l-1.44-.22a.57.57,0,0,1-.22-1Z" transform="translate(-1.8)" fill="#fff"/><path d="M150.06,111.24l.09-.41a.17.17,0,0,0,0-.14l-.26-.34a.18.18,0,0,1,.05-.24.2.2,0,0,1,.13,0l.41.1a.15.15,0,0,0,.13,0l.35-.25a.18.18,0,0,1,.24,0,.17.17,0,0,1,0,.12l-.1.41a.17.17,0,0,0,0,.14l.25.34a.16.16,0,0,1-.05.23.13.13,0,0,1-.12,0l-.42-.1a.15.15,0,0,0-.13,0l-.34.25a.16.16,0,0,1-.22,0A.17.17,0,0,1,150.06,111.24Z" transform="translate(-1.8)" fill="#2e333b"/><path d="M103.15,108.52l.1-.41a.17.17,0,0,0,0-.14l-.25-.34a.18.18,0,0,1,0-.24.17.17,0,0,1,.12,0l.41.1a.17.17,0,0,0,.14,0l.34-.25a.16.16,0,0,1,.23,0,.15.15,0,0,1,0,.16l-.09.41a.17.17,0,0,0,0,.14l.25.34a.16.16,0,0,1,0,.23.13.13,0,0,1-.12,0l-.41-.1a.17.17,0,0,0-.14,0l-.34.25a.17.17,0,0,1-.27-.17Z" transform="translate(-1.8)" fill="#2e333b"/><path d="M97.92,127l1.23-.77a.53.53,0,0,0,.26-.39l.22-1.44a.57.57,0,0,1,.65-.48.6.6,0,0,1,.4.27l.76,1.23a.57.57,0,0,0,.4.26l1.43.23a.57.57,0,0,1,.42.69.58.58,0,0,1-.2.31l-1.24.76a.61.61,0,0,0-.26.4l-.22,1.43a.57.57,0,0,1-.69.42.58.58,0,0,1-.31-.2l-.77-1.2a.59.59,0,0,0-.39-.26L98.17,128a.56.56,0,0,1-.52-.6A.54.54,0,0,1,97.92,127Z" transform="translate(-1.8)" fill="#fff"/><path d="M142.13,75.6,141.8,77a.58.58,0,0,0,.1.46l.86,1.17a.57.57,0,0,1-.13.8.57.57,0,0,1-.46.09l-1.41-.33a.61.61,0,0,0-.47.09l-1.17.86a.56.56,0,0,1-.79-.13.54.54,0,0,1-.1-.46l.33-1.41a.54.54,0,0,0-.09-.46l-.86-1.18a.56.56,0,0,1,.11-.79.55.55,0,0,1,.48-.09l1.41.33a.54.54,0,0,0,.46-.1l1.18-.86a.56.56,0,0,1,.79.15A.58.58,0,0,1,142.13,75.6Z" transform="translate(-1.8)" fill="#fff"/><path d="M99.39,181l-.36.22a.15.15,0,0,0-.07.12l-.07.42a.16.16,0,0,1-.17.14.14.14,0,0,1-.13-.08l-.23-.36a.15.15,0,0,0-.11-.08l-.42-.06a.17.17,0,0,1-.13-.2.12.12,0,0,1,.07-.11l.36-.22a.15.15,0,0,0,.07-.12l.07-.41a.16.16,0,0,1,.17-.15.16.16,0,0,1,.13.08l.23.36a.15.15,0,0,0,.11.08l.42.06a.19.19,0,0,1,.14.2A.21.21,0,0,1,99.39,181Z" transform="translate(-1.8)" fill="#2e333b"/><path d="M307.14,89.62l-.39,1.19a.49.49,0,0,0,0,.41l.65,1.08a.48.48,0,0,1-.18.67.51.51,0,0,1-.4,0l-1.19-.39a.47.47,0,0,0-.4,0l-1.08.64a.48.48,0,0,1-.66-.14.5.5,0,0,1-.05-.43l.39-1.19a.49.49,0,0,0,0-.41L303.18,90a.5.5,0,0,1,.58-.72l1.19.4a.47.47,0,0,0,.4,0l1.08-.64a.48.48,0,0,1,.67.1A.47.47,0,0,1,307.14,89.62Z" transform="translate(-1.8)" fill="#fff"/><path d="M292.13,181.86l.17.33a.13.13,0,0,0,.09.07l.35.09a.14.14,0,0,1,.1.17.13.13,0,0,1-.1.1l-.33.16a.18.18,0,0,0-.07.1l-.09.35a.15.15,0,0,1-.17.1.14.14,0,0,1-.1-.1l-.16-.33a.16.16,0,0,0-.09-.07l-.36-.09a.15.15,0,0,1-.1-.17.14.14,0,0,1,.1-.1l.33-.16a.14.14,0,0,0,.08-.09l.08-.36a.14.14,0,0,1,.2-.07A.12.12,0,0,1,292.13,181.86Z" transform="translate(-1.8)" fill="#2e333b"/><path d="M324.76,157.81l.16.33a.14.14,0,0,0,.1.07l.35.09a.14.14,0,0,1,.1.17.13.13,0,0,1-.1.1l-.33.16a.16.16,0,0,0-.07.09l-.09.36a.15.15,0,0,1-.17.1.14.14,0,0,1-.1-.1l-.16-.33a.13.13,0,0,0-.09-.07l-.36-.09a.16.16,0,0,1-.07-.2.16.16,0,0,1,.07-.07l.33-.16a.14.14,0,0,0,.07-.1l.09-.35a.14.14,0,0,1,.2-.07A.12.12,0,0,1,324.76,157.81Z" transform="translate(-1.8)" fill="#2e333b"/><path d="M318.05,142.67l-.39,1.19a.47.47,0,0,0,0,.4l.65,1.08a.48.48,0,0,1-.18.67.51.51,0,0,1-.4,0l-1.19-.39a.47.47,0,0,0-.4,0l-1.08.64a.48.48,0,0,1-.66-.14.5.5,0,0,1,0-.43l.39-1.19a.49.49,0,0,0,0-.41l-.65-1.07a.5.5,0,0,1,.58-.72l1.19.4a.47.47,0,0,0,.4,0l1.08-.65a.48.48,0,0,1,.67.18A.47.47,0,0,1,318.05,142.67Z" transform="translate(-1.8)" fill="#fff"/><path d="M317,201.15l-.56-1.12a.52.52,0,0,0-.32-.26l-1.22-.3a.49.49,0,0,1-.37-.59.53.53,0,0,1,.27-.33l1.12-.56a.5.5,0,0,0,.26-.31l.3-1.22a.49.49,0,0,1,.6-.35.49.49,0,0,1,.31.25l.56,1.12a.52.52,0,0,0,.32.26l1.22.3a.49.49,0,0,1,.35.6.46.46,0,0,1-.25.31l-1.12.56a.52.52,0,0,0-.26.32l-.3,1.22a.49.49,0,0,1-.6.35A.52.52,0,0,1,317,201.15Z" transform="translate(-1.8)" fill="#fff"/><path d="M287.3,107.63l.11-.35a.11.11,0,0,0,0-.11l-.19-.32a.16.16,0,0,1,.07-.2.17.17,0,0,1,.1,0l.35.12h.12l.31-.19a.14.14,0,0,1,.2,0,.14.14,0,0,1,0,.14l-.12.34a.24.24,0,0,0,0,.12l.19.32a.14.14,0,0,1-.05.19.17.17,0,0,1-.12,0l-.35-.11a.13.13,0,0,0-.12,0l-.31.19a.14.14,0,0,1-.19,0A.17.17,0,0,1,287.3,107.63Z" transform="translate(-1.8)" fill="#2e333b"/><path d="M225.76,272.13l.34-.83a.3.3,0,0,0,0-.29l-.41-.8a.34.34,0,0,1,.16-.47.33.33,0,0,1,.29,0l.83.34a.37.37,0,0,0,.29,0l.79-.4a.36.36,0,0,1,.48.14.39.39,0,0,1,0,.3l-.34.83a.37.37,0,0,0,0,.29l.41.8a.35.35,0,0,1-.16.47.39.39,0,0,1-.28,0l-.83-.34a.37.37,0,0,0-.29,0l-.8.41a.37.37,0,0,1-.48-.13A.4.4,0,0,1,225.76,272.13Z" transform="translate(-1.8)" fill="#fff"/><path d="M240.8,207.09l-.1-.24a.09.09,0,0,0-.06-.06l-.25-.08a.1.1,0,0,1-.06-.13.09.09,0,0,1,.06-.06l.24-.1a.13.13,0,0,0,.06-.07l.08-.25a.1.1,0,0,1,.13-.06.09.09,0,0,1,.06.06l.1.24h.06l.25.08a.11.11,0,0,1,.06.15s0,0-.06.05l-.24.1a.09.09,0,0,0-.06.06L241,207a.1.1,0,0,1-.07.12A.11.11,0,0,1,240.8,207.09Z" transform="translate(-1.8)" fill="#2e333b"/><path d="M216.41,222.7l-.1-.25a.1.1,0,0,0-.06,0l-.25-.08a.1.1,0,0,1-.06-.13.09.09,0,0,1,.06-.06l.24-.11a.09.09,0,0,0,.06-.06l.08-.25a.1.1,0,0,1,.13-.06.09.09,0,0,1,.06.06l.1.25h.06l.25.08a.1.1,0,0,1,.06.13s0,.05-.06.06l-.24.11a.09.09,0,0,0-.06.06l-.08.25s0,.1-.09.11A.11.11,0,0,1,216.41,222.7Z" transform="translate(-1.8)" fill="#2e333b"/><path d="M220.48,233.81l.34-.83a.32.32,0,0,0,0-.3l-.41-.79a.34.34,0,0,1,.16-.47.33.33,0,0,1,.29,0l.83.33a.37.37,0,0,0,.29,0l.79-.41a.36.36,0,0,1,.48.17.39.39,0,0,1,0,.28l-.34.82a.39.39,0,0,0,0,.3l.41.79a.35.35,0,0,1-.14.47.35.35,0,0,1-.3,0l-.83-.34a.3.3,0,0,0-.29,0l-.8.41a.35.35,0,0,1-.47-.14A.35.35,0,0,1,220.48,233.81Z" transform="translate(-1.8)" fill="#fff"/><path d="M224,192.17l.34.82a.34.34,0,0,0,.22.2l.85.27a.34.34,0,0,1,.21.45.34.34,0,0,1-.21.21l-.83.35a.33.33,0,0,0-.19.21l-.28.85a.33.33,0,0,1-.45.19.34.34,0,0,1-.2-.19l-.35-.82a.32.32,0,0,0-.21-.2l-.86-.28a.35.35,0,0,1-.19-.46.32.32,0,0,1,.19-.19l.82-.35a.37.37,0,0,0,.2-.21l.27-.85a.34.34,0,0,1,.44-.23A.33.33,0,0,1,224,192.17Z" transform="translate(-1.8)" fill="#fff"/><path d="M240.75,260.23l-.1.24a.11.11,0,0,0,0,.08l.12.24a.11.11,0,0,1-.07.14h-.06l-.25-.1h-.08l-.23.12a.1.1,0,0,1-.14,0,.14.14,0,0,1,0-.09l.09-.24a.06.06,0,0,0,0-.08l-.12-.24a.1.1,0,0,1,0-.14H240l.24.1h.09l.23-.12a.1.1,0,0,1,.14,0A.09.09,0,0,1,240.75,260.23Z" transform="translate(-1.8)" fill="#2e333b"/><path d="M106.79,78.08l-.68.59a.37.37,0,0,0-.12.26v.9a.35.35,0,0,1-.35.35.42.42,0,0,1-.26-.12l-.59-.68a.32.32,0,0,0-.26-.12h-.9a.36.36,0,0,1-.34-.38.32.32,0,0,1,.11-.24l.68-.58a.36.36,0,0,0,.12-.27V76.9a.36.36,0,0,1,.34-.36.37.37,0,0,1,.28.13l.58.68a.36.36,0,0,0,.27.12h.89a.35.35,0,0,1,.35.35A.37.37,0,0,1,106.79,78.08Z" transform="translate(-1.8)" fill="#fff"/><path d="M63.8,129.16v.26a.11.11,0,0,0,0,.08l.18.18a.1.1,0,0,1,0,.14.12.12,0,0,1-.11,0h-.26a.06.06,0,0,0-.08,0l-.18.18a.1.1,0,0,1-.14,0,.12.12,0,0,1,0-.11v-.26a.11.11,0,0,0,0-.08l-.2-.21a.1.1,0,0,1,0-.14.11.11,0,0,1,.08,0h.34l.18-.18a.11.11,0,0,1,.15-.05A.11.11,0,0,1,63.8,129.16Z" transform="translate(-1.8)" fill="#2e333b"/><path d="M92.62,126.41v.26a.11.11,0,0,0,0,.08l.18.18a.1.1,0,0,1,0,.14.12.12,0,0,1-.11,0h-.26a.06.06,0,0,0-.08,0l-.18.18a.1.1,0,0,1-.14,0,.12.12,0,0,1,0-.11V127a.06.06,0,0,0,0-.08l-.18-.18a.11.11,0,0,1,0-.14.12.12,0,0,1,.11,0h.34l.18-.18a.1.1,0,0,1,.14,0A.12.12,0,0,1,92.62,126.41Z" transform="translate(-1.8)" fill="#2e333b"/><path d="M94.05,114.61l-.68.59a.37.37,0,0,0-.12.26v.9a.35.35,0,0,1-.35.35.42.42,0,0,1-.26-.12l-.58-.68a.3.3,0,0,0-.27-.12h-.9a.35.35,0,0,1-.22-.62l.67-.58a.37.37,0,0,0,.13-.27v-.91a.36.36,0,0,1,.34-.36.37.37,0,0,1,.28.13l.58.68a.4.4,0,0,0,.27.12h.89a.35.35,0,0,1,.36.34A.37.37,0,0,1,94.05,114.61Z" transform="translate(-1.8)" fill="#fff"/><path d="M72,150.11l.06-.9a.34.34,0,0,0-.1-.27l-.63-.63a.36.36,0,0,1,0-.5.37.37,0,0,1,.28-.1l.89.07a.36.36,0,0,0,.28-.1l.63-.64a.36.36,0,0,1,.5,0,.38.38,0,0,1,.1.29l-.07.89a.34.34,0,0,0,.1.27l.63.63a.35.35,0,0,1,0,.49.34.34,0,0,1-.28.11l-.89-.07a.43.43,0,0,0-.28.11l-.63.63a.34.34,0,0,1-.48,0A.34.34,0,0,1,72,150.11Z" transform="translate(-1.8)" fill="#fff"/><path d="M88,81.86l.2-.17a.11.11,0,0,0,0-.08v-.26a.1.1,0,0,1,.09-.11.1.1,0,0,1,.09,0l.17.2H89a.09.09,0,0,1,.1.1.09.09,0,0,1,0,.08l-.19.17a.11.11,0,0,0,0,.08v.26a.1.1,0,0,1-.09.11.11.11,0,0,1-.09,0l-.17-.2a.11.11,0,0,0-.08,0h-.26a.13.13,0,0,1-.18-.18Z" transform="translate(-1.8)" fill="#2e333b"/><path d="M348.36,179l-.46.77a.37.37,0,0,0,0,.29l.3.85a.35.35,0,0,1-.51.42l-.77-.46a.39.39,0,0,0-.3,0l-.84.3a.35.35,0,0,1-.45-.21.39.39,0,0,1,0-.3l.46-.77a.32.32,0,0,0,0-.3l-.29-.84a.35.35,0,0,1,.21-.45.32.32,0,0,1,.3,0l.77.46a.37.37,0,0,0,.29,0l.85-.29a.35.35,0,0,1,.44.23A.42.42,0,0,1,348.36,179Z" transform="translate(-1.8)" fill="#fff"/><path d="M324.19,241.24l.07.26a.06.06,0,0,0,.05.06l.24.12a.1.1,0,0,1,.06.13s0,.05-.06.06l-.26.06a.09.09,0,0,0-.06.06l-.12.23a.1.1,0,0,1-.13.06.09.09,0,0,1-.06-.06l-.06-.25a.09.09,0,0,0-.06-.06l-.23-.12a.1.1,0,0,1-.06-.13.09.09,0,0,1,.06-.06l.25-.07a.06.06,0,0,0,.06-.05l.12-.24a.1.1,0,0,1,.13-.06A.09.09,0,0,1,324.19,241.24Z" transform="translate(-1.8)" fill="#2e333b"/><path d="M350.56,229.27l.06.26a.09.09,0,0,0,.06.06l.23.12a.1.1,0,0,1,.06.13s0,0-.06.06l-.25.06a.09.09,0,0,0-.06.06l-.12.23a.1.1,0,0,1-.13.06.09.09,0,0,1-.06-.06l-.07-.25a.08.08,0,0,0-.05-.07l-.23-.11a.1.1,0,0,1-.06-.13.09.09,0,0,1,.06-.06l.26-.07a.06.06,0,0,0,.06-.05l.12-.24a.11.11,0,0,1,.13-.05A.08.08,0,0,1,350.56,229.27Z" transform="translate(-1.8)" fill="#2e333b"/><path d="M348.12,217.7l-.46.77a.37.37,0,0,0,0,.29l.29.85a.35.35,0,0,1-.22.44.37.37,0,0,1-.29,0l-.77-.45a.37.37,0,0,0-.29,0l-.85.29a.35.35,0,0,1-.45-.21.39.39,0,0,1,0-.3l.46-.77a.37.37,0,0,0,0-.29l-.29-.85a.34.34,0,0,1,.5-.41l.78.45a.37.37,0,0,0,.29,0l.84-.29a.36.36,0,0,1,.46.19A.36.36,0,0,1,348.12,217.7Z" transform="translate(-1.8)" fill="#fff"/><path d="M338.74,258.41l-.23-.86a.38.38,0,0,0-.18-.23l-.81-.39a.35.35,0,0,1-.15-.47.33.33,0,0,1,.22-.18l.86-.23a.38.38,0,0,0,.23-.18l.39-.81a.35.35,0,0,1,.47-.15.31.31,0,0,1,.18.22l.23.86a.35.35,0,0,0,.18.23l.81.39a.35.35,0,0,1,.15.47.33.33,0,0,1-.22.18l-.86.23a.35.35,0,0,0-.23.18l-.39.81a.35.35,0,0,1-.47.15A.33.33,0,0,1,338.74,258.41Z" transform="translate(-1.8)" fill="#fff"/><path d="M331.82,188.65l.18-.24a.08.08,0,0,0,0-.09l-.09-.24A.1.1,0,0,1,332,188a.1.1,0,0,1,.09,0l.23.13h.08l.25-.09a.1.1,0,0,1,.13.05.11.11,0,0,1,0,.1l-.13.23a.11.11,0,0,0,0,.08l.08.25a.1.1,0,0,1-.06.13h-.08l-.23-.13h-.08l-.25.08a.1.1,0,0,1-.15,0A.11.11,0,0,1,331.82,188.65Z" transform="translate(-1.8)" fill="#2e333b"/><ellipse cx="301.04" cy="319.67" rx="23.45" ry="2.12" fill="#666a6f" opacity="0.3" style="isolation:isolate"/><polygon points="227.78 99.3 225.95 97.48 222.78 96.85 224.52 94.97 224.89 94.78 224.79 88.03 227.78 82.72 228.77 84.05 227.45 86.7 229.77 86.7 229.77 96.98 227.78 99.3" fill="#f5e1db"/><polygon points="207.88 123.18 206.05 121.36 201.87 119.43 203.44 117.77 204.89 118.21 204.89 111.91 207.88 106.6 208.87 107.93 207.55 110.58 209.87 110.58 209.87 120.86 207.88 123.18" fill="#f5e1db"/><polygon points="243.7 162.65 210.2 119.87 206.88 122.85 237.73 183.21 243.7 162.65" fill="#fdffff"/><path d="M318.85,311.81l1.3,3-4.59,4.4-6.94.45s2.73-5.24,6.1-3.17c-.05-1.28-.23-6.08-.23-6.08Z" transform="translate(-1.8)" fill="#262a33"/><path d="M274.06,235.67l40.42,75.58a13.1,13.1,0,0,0,.17,1.65l5.63-.67s-1.58-3.93-1.6-4L306.8,267.49a2.82,2.82,0,0,0-1.17-1.56l-5.05-3.25a2.79,2.79,0,0,1-1.25-2l-5.46-44.27A2.79,2.79,0,0,0,289,215l-14.59,17.61A2.8,2.8,0,0,0,274.06,235.67Z" transform="translate(-1.8)" fill="#262a33"/><path d="M302.09,312.76l.93,3.11-5.1,3.8-6.94-.4s3.35-4.87,6.44-2.4c.11-1.28.51-6.06.51-6.06Z" transform="translate(-1.8)" fill="#2e333b"/><path d="M261.39,218.75,298,315.55a.11.11,0,0,0,.14.06h0l4.33-2.41a.1.1,0,0,0,.06-.11l-6.81-41.91a2.77,2.77,0,0,0-1-1.69l-4.61-3.85a2.8,2.8,0,0,1-1-2.14V218.89a2.79,2.79,0,0,0-4.7-2l-22.32-1.15A2.76,2.76,0,0,0,261.39,218.75Z" transform="translate(-1.8)" fill="#2e333b"/><path d="M237.74,166.73,236,185.09a2.77,2.77,0,0,0,.11.56L261.78,222l32.5-4.31-25.54-56.38c-.71-1.85-4.67-2.85-6.64-3L247.16,157a5.2,5.2,0,0,0-4.64,2.09l-3.76,5.11A5.15,5.15,0,0,0,237.74,166.73Z" transform="translate(-1.8)" fill="#fff"/><path d="M241.51,163.3l-10.38-8.69a1.24,1.24,0,0,1-.39-1.35l1.58-4.94a1.26,1.26,0,0,0-.73-1.55h0a1.26,1.26,0,0,1-.7-1.64,1.34,1.34,0,0,1,.22-.36l6.48-7.34a1.26,1.26,0,0,1,1.39-.34l9,3.44a1.25,1.25,0,0,1,.79,1.36l-1.41,9.4a1.31,1.31,0,0,0,.31,1l3.1,3.49a1.26,1.26,0,0,1-.12,1.78l-.06.05-7.46,5.7A1.26,1.26,0,0,1,241.51,163.3Z" transform="translate(-1.8)" fill="#f5e1db"/><path d="M243.64,148.12l-.39.66a.93.93,0,0,1-1.17.37h0a.92.92,0,0,1-.47-1.21l0-.05,1.78-3.5a.91.91,0,0,0-.06-.93l-3.58-5.34a.69.69,0,0,0-.11-.13l-2.95-1.58a.93.93,0,0,1,.85-1.56l12.52,2.33a.93.93,0,0,1,.73,1.08l-2.76,14.66-1.16-.65a1.05,1.05,0,0,1-.42-.51l-1.16-3.42a.92.92,0,0,0-1.14-.63A.94.94,0,0,0,243.64,148.12Z" transform="translate(-1.8)" fill="#262a33"/><path d="M243.82,147.83c-.44,1.27-.26,2.48.41,2.71s1.57-.6,2-1.86.26-2.48-.41-2.72S244.26,146.57,243.82,147.83Z" transform="translate(-1.8)" fill="#f5e1db"/><polygon points="237.28 143.4 234.61 141.89 235.7 143.33 237.28 143.4" fill="#eec7bb"/><polygon points="239.44 166.8 244.8 169.64 245.36 166.37 244.53 168.86 239.44 166.8" opacity="0.08" style="isolation:isolate"/><polygon points="239.4 167.2 238.19 171.51 236.07 170.66 237.94 170.8 239.4 167.2" opacity="0.08" style="isolation:isolate"/><polygon points="239.58 167 241.47 168.13 241.54 171.91 239.61 171.88 239.58 167" fill="#262a33"/><polygon points="240.06 152.19 236.09 155.7 229.55 154.32 240.34 163.11 248.1 157.59 240.06 152.19" fill="#eec7bb" opacity="0.43" style="isolation:isolate"/><g clip-path="url(#clip-path-3)"><polygon points="241.21 170.28 253.05 214.96 246.55 205.71 240.8 177.09 241.21 170.28" fill="#666a6f" opacity="0.2" style="isolation:isolate"/></g><polygon points="270.23 170.28 266.25 154.69 230.43 95.32 226.45 96.98 251.42 163.71 270.23 170.28" fill="#fdffff"/><polygon points="241.21 170.28 244.36 215.22 241.87 217.87 238.56 216.05 239.72 170.94 241.21 170.28" fill="#262a33"/><path d="M239.47,303.58h3.78v9.83a4,4,0,0,1-2.28-5.18,3.77,3.77,0,0,1,.28-.57l-2.87-.45Z" transform="translate(-1.8)" fill="#262a33"/><path d="M250.94,319.41c0,1.31-24,2.37-53.69,2.37s-53.68-1.06-53.68-2.37,24-2.36,53.68-2.36S250.94,318.12,250.94,319.41Z" transform="translate(-1.8)" fill="#666a6f" opacity="0.3" style="isolation:isolate"/><path d="M183.45,255.61l13.8.38a2.35,2.35,0,0,1,1.48.86l1,47.26a2.3,2.3,0,0,0,2.51.77l11.39-3.83a2.21,2.21,0,0,1,.92-.1l25.68,2.46v4.17l-50.5,10.13a2.35,2.35,0,0,1-1.88-.45L179.4,292c-.57-.45-4.9-24.51-4.88-25.23l6.3-9a2.3,2.3,0,0,1,2.38-2.22Z" transform="translate(-1.8)" fill="#2e333b"/><path d="M163.64,316.09v3.79H153.8A4,4,0,0,1,159,317.6a3.77,3.77,0,0,1,.57.28L160,315Z" transform="translate(-1.8)" fill="#262a33"/><path d="M200.72,257.84l-.38,13.8a2.33,2.33,0,0,1-.86,1.48l-36.37,3.29a2.31,2.31,0,0,0-.77,2.52l3.83,11.39a2.21,2.21,0,0,1,.1.92l-2.45,25.64h-4.17l-13-51.72a2.27,2.27,0,0,1,.45-1.88L175.18,256a2.32,2.32,0,0,1,1.86-.87l21.44.06a2.3,2.3,0,0,1,2.26,2.34A2.45,2.45,0,0,1,200.72,257.84Z" transform="translate(-1.8)" fill="#262a33"/><polygon points="189.52 203.41 156.19 174.51 154.07 177.4 180.85 216.89 189.52 203.41" fill="#262a33"/><path d="M178.74,203.06l-7.61,13.21a.86.86,0,0,0-.11.47L173.43,257h21.84a4.29,4.29,0,0,0,4.28-4l2.56-43.93a4.29,4.29,0,0,0-2.17-4l-10.79-6.12a4.27,4.27,0,0,0-4.21,0l-4.58,2.56A4.28,4.28,0,0,0,178.74,203.06Z" transform="translate(-1.8)" fill="#fff"/><path d="M180.66,203.62l-8.59-7.21a1,1,0,0,1-.32-1.12l1.31-4.08a1,1,0,0,0-.61-1.29h0a1,1,0,0,1-.62-1.27.89.89,0,0,1,.23-.38l5.35-6.07a1.06,1.06,0,0,1,1.16-.29l7.4,2.85a1,1,0,0,1,.65,1.13l-1.16,7.77a1,1,0,0,0,.25.85l2.56,2.88a1,1,0,0,1,0,1.41.69.69,0,0,1-.13.11L182,203.65A1.06,1.06,0,0,1,180.66,203.62Z" transform="translate(-1.8)" fill="#f5e1db"/><path d="M182.42,191.06l-.32.55a.77.77,0,0,1-1,.31h0a.78.78,0,0,1-.37-1L182.2,188a.78.78,0,0,0,0-.78l-3-4.41-.09-.11-2.44-1.34a.76.76,0,0,1,.7-1.28L187.73,182a.76.76,0,0,1,.6.89l-2.28,12.13-1-.54a.77.77,0,0,1-.35-.42l-1-2.83a.76.76,0,0,0-1-.41A.86.86,0,0,0,182.42,191.06Z" transform="translate(-1.8)" fill="#262a33"/><path d="M182.57,190.82c-.37,1.05-.22,2.05.34,2.25s1.29-.5,1.66-1.55.21-2.05-.34-2.24S182.93,189.78,182.57,190.82Z" transform="translate(-1.8)" fill="#f5e1db"/><polygon points="176.85 187.16 174.64 185.91 175.55 187.11 176.85 187.16" fill="#eec7bb"/><polygon points="179.56 204.3 182.62 208.28 184.16 206.01 182.68 207.6 179.56 204.3" opacity="0.08" style="isolation:isolate"/><polygon points="179.39 204.59 177 207.42 175.7 206.06 177.06 206.8 179.39 204.59" opacity="0.08" style="isolation:isolate"/><polygon points="178.67 205.83 180.95 206.54 179.81 209.54 178.24 209.25 178.67 205.83" fill="#262a33"/><polygon points="178.67 208.4 172.97 221.36 173.68 239.6 176.39 241.88 180.24 240.74 176.67 221.79 179.81 209.54 178.67 208.4" fill="#262a33"/><polygon points="179.14 194.43 175.87 197.33 170.45 196.19 179.38 203.46 185.79 198.9 179.14 194.43" fill="#eec7bb" opacity="0.43" style="isolation:isolate"/><polygon points="152.07 173.18 149.88 171.91 148.31 173.57 152.49 175.5 154.32 177.32 156.31 175 155.83 169.28 152.07 173.18" fill="#f5e1db"/><polygon points="127.29 199.99 129.94 206.1 128.64 209.77 119.01 202.35 120.64 196.23 125.75 201.87 127.29 199.99" fill="#f5e1db"/><path d="M188.1,197.15l.61.42,15,9.24a.62.62,0,0,1,.29.62l-2.88,20.79v.15l3.64,37.35c.07.67-8.3-3.3-8.63-3.89l-11.26-34.77" transform="translate(-1.8)" fill="#2e333b"/><g clip-path="url(#clip-path-4)"><polygon points="193.55 220.96 169.2 244.62 168.77 237.06 186.17 222.34 193.55 220.96" fill="#666a6f" opacity="0.3" style="isolation:isolate"/></g><polygon points="192.29 206.1 164.43 221.69 129.94 206.1 128.64 209.77 164.76 230.64 194.55 221.09 192.29 206.1" fill="#2e333b"/></g></g></g></g></g></svg>