<svg xmlns="http://www.w3.org/2000/svg" xmlns:xlink="http://www.w3.org/1999/xlink" viewBox="0 0 434.89 422.53"><defs><clipPath id="clip-path"><path d="M218.27,59.82l-.19,5.53s-6.7.56-6.91-2.12C211.17,63.23,211.88,59,218.27,59.82Z" fill="none"/></clipPath><clipPath id="clip-path-2"><path d="M218.05,65.91s-.1,4.09-.53,10.33c0,0-5.57.2-7.55-2.22-.92-1.12-1-3.06-.85-5.88C209.12,68.14,211.43,64.51,218.05,65.91Z" fill="none"/></clipPath><clipPath id="clip-path-3"><path d="M222.45,71.42s-5.44-7.35-11.87-.86A7.67,7.67,0,0,0,216,74.9C219.86,75.63,222.45,71.42,222.45,71.42Z" fill="none"/></clipPath><clipPath id="clip-path-4"><path d="M193.83,67.36s7.28-5.55,11.65,2.47a7.69,7.69,0,0,1-6.38,2.68C195.15,72.12,193.83,67.36,193.83,67.36Z" fill="none"/></clipPath></defs><g id="Layer_2" data-name="Layer 2"><g id="Layer_1-2" data-name="Layer 1"><g id="OBJECTS"><path d="M387.79,224.62c43-49.18,40.12-97.25,17.57-108.28-21.37-10.45-88.09,37.4-94.24-20.46S295.65,5.63,258,.73,174.61,41.14,153,122.08C132.11,200.3,30,107.2,5.53,164-22,228,69.72,313.82,69.72,313.82s146.74,100.6,239,73.22S351,266.69,387.79,224.62Z" fill="none" stroke="#cebeb3" stroke-linecap="round" stroke-linejoin="round" stroke-width="0.75"/><path d="M375.65,422.51s13.32.95,13.32-12.23V372.4s-.57-5.66-8.59-5.66C380.38,366.74,371.29,417,375.65,422.51Z" fill="#e06c6c"/><path d="M11.62,372.67h97.83L165,210.07H434.89l-52.2,162.6V408.2a8.21,8.21,0,0,1-8.22,8.21H11.62Z" fill="#e06c6c"/><path d="M11.62,372.4H377a5.65,5.65,0,0,1,5.65,5.65v31.13a7.23,7.23,0,0,1-7.23,7.23H11.62Z" fill="#fff"/><rect x="3.83" y="416.41" width="371.82" height="6.1" fill="#e06c6c"/><path d="M377.09,372.4l-251.65-.67c-7.74-120.43,36.17-172.49,36.17-172.49H422.27S377.09,255.66,377.09,372.4Z" fill="#fff"/><line x1="377.09" y1="372.4" x2="59.03" y2="372.4" fill="none" stroke="#2c0c04" stroke-linecap="round" stroke-linejoin="round" stroke-width="0.75"/><path d="M185.66,372.4s18.9,24,0,44" fill="none" stroke="#2c0c04" stroke-linecap="round" stroke-linejoin="round" stroke-width="0.75"/><path d="M374.47,212.35s-42.29,57.76-22.36,148.36" fill="none" stroke="#2c0c04" stroke-linecap="round" stroke-linejoin="round" stroke-width="0.75"/><path d="M333.05,212.35H248.84S235.27,250.29,236,308.27H314.9S315.4,251,333.05,212.35Z" fill="none" stroke="#2c0c04" stroke-linecap="round" stroke-linejoin="round" stroke-width="0.75"/><path d="M315.4,321.42s1.5,24.83,9.51,39.29" fill="none" stroke="#2c0c04" stroke-linecap="round" stroke-linejoin="round" stroke-width="0.75"/><path d="M285.89,321.42s2.3,22.27,9.79,39.29" fill="none" stroke="#2c0c04" stroke-linecap="round" stroke-linejoin="round" stroke-width="0.75"/><path d="M259.39,321.42s2,23.42,11.23,39.29" fill="none" stroke="#2c0c04" stroke-linecap="round" stroke-linejoin="round" stroke-width="0.75"/><path d="M231,212.35S197.54,273,218.06,360.71" fill="none" stroke="#2c0c04" stroke-linecap="round" stroke-linejoin="round" stroke-width="0.75"/><path d="M202.22,210.07s-32.73,79.76-5.07,150.64" fill="none" stroke="#2c0c04" stroke-linecap="round" stroke-linejoin="round" stroke-width="0.75"/><path d="M173.47,212.35s-23.82,32.51-15.65,109.07" fill="none" stroke="#2c0c04" stroke-linecap="round" stroke-linejoin="round" stroke-width="0.75"/><path d="M379.64,325.7s2.55-41.24,24.06-93.28" fill="none" stroke="#2c0c04" stroke-linecap="round" stroke-linejoin="round" stroke-width="0.75"/><line x1="356.71" y1="406.22" x2="259.39" y2="406.22" fill="none" stroke="#2c0c04" stroke-linecap="round" stroke-linejoin="round" stroke-width="0.75"/><line x1="249.14" y1="385.61" x2="208.45" y2="385.61" fill="none" stroke="#2c0c04" stroke-linecap="round" stroke-linejoin="round" stroke-width="0.75"/><line x1="76.61" y1="395.88" x2="138.46" y2="395.88" fill="none" stroke="#2c0c04" stroke-linecap="round" stroke-linejoin="round" stroke-width="0.75"/><path d="M217.29,79.07c-.72,7.49-6.63,14.35-16.89,11.44l-1.87,13s-4.13,3-12.06,1.67c-8.49-1.39-10.28-5.62-10.28-5.62l5-26.4a5.29,5.29,0,0,1-1.44,0s-5.11-.88-2.66-8.31c2.31-7,5.9-4.35,5.9-4.35l1.42-5.52s2.91-10.9,20-8.47c13.27,1.88,13.8,13.39,13.8,13.39S217.89,72.76,217.29,79.07Z" fill="#c46341"/><g clip-path="url(#clip-path)"><path d="M223,66.05a6.59,6.59,0,0,0-1.53-2.17,7.87,7.87,0,0,0-2.15-1.42,8.22,8.22,0,0,0-2.48-.58,10.43,10.43,0,0,0-1.25,0c-.41,0-.82.11-1.23.19a1.36,1.36,0,0,0-1,1.56,1.23,1.23,0,0,0,1.3,1.1h.1a16.26,16.26,0,0,1,2-.13,7.51,7.51,0,0,1,1.89.21,6.31,6.31,0,0,1,1.79.73,6.74,6.74,0,0,1,1.57,1.22l.08.07a.57.57,0,0,0,.85,0A.72.72,0,0,0,223,66.05Z" fill="#2c0c04"/></g><g clip-path="url(#clip-path-2)"><path d="M222.45,71.42s-5.44-7.35-11.87-.86A7.67,7.67,0,0,0,216,74.9C219.86,75.63,222.45,71.42,222.45,71.42Z" fill="#fff"/><g clip-path="url(#clip-path-3)"><path d="M219.52,73.79a3.79,3.79,0,1,1-3.22-4.29A3.79,3.79,0,0,1,219.52,73.79Z" fill="#2c0c04"/></g><path d="M210.49,70.35a7,7,0,0,1,2.62-2.48,6.26,6.26,0,0,1,3.67-.76,6.94,6.94,0,0,1,3.46,1.4,12,12,0,0,1,1.32,1.24,16,16,0,0,1,1,1.47.14.14,0,0,1,0,.18.12.12,0,0,1-.13,0h0c-.5-.32-1-.66-1.4-1s-.93-.61-1.41-.85l-.71-.35a6.39,6.39,0,0,0-.73-.27,3.13,3.13,0,0,0-.74-.21,6.37,6.37,0,0,0-.74-.13,8.92,8.92,0,0,0-5.95,1.93h0a.13.13,0,0,1-.18,0A.14.14,0,0,1,210.49,70.35Z" fill="#2c0c04"/></g><path d="M209.69,69.85c-.2,3.68,1,4.47,1.71,5.07a1.26,1.26,0,0,1,.27,1.53,2.21,2.21,0,0,1-2.11,1.29" fill="none" stroke="#2c0c04" stroke-linecap="round" stroke-linejoin="round" stroke-width="0.75"/><path d="M207.8,76.92s-.4-.69-1.24-.13" fill="none" stroke="#2c0c04" stroke-linecap="round" stroke-linejoin="round" stroke-width="0.75"/><path d="M205.53,77.05c-1.73-1.64.54-2.85.54-2.85" fill="none" stroke="#2c0c04" stroke-linecap="round" stroke-linejoin="round" stroke-width="0.75"/><path d="M199.79,94.75c-7.75-1.1-12.3-11.12-12.3-11.12a35.69,35.69,0,0,0,12.91,6.88Z" fill="#2c0c04"/><path d="M181.77,70.41s-1.19-1.08-.61-2.15,1.53-.58,1.74-1.79" fill="none" stroke="#2c0c04" stroke-linecap="round" stroke-linejoin="round" stroke-width="0.75"/><path d="M182.32,62.42s-2-1.33-3.1,2.75" fill="none" stroke="#2c0c04" stroke-linecap="round" stroke-linejoin="round" stroke-width="0.75"/><path d="M195.64,62.18a6.46,6.46,0,0,1,2.05-1.67,7.8,7.8,0,0,1,2.44-.77,8.11,8.11,0,0,1,2.51.13,9.73,9.73,0,0,1,1.2.35c.38.16.75.33,1.11.52a1.36,1.36,0,0,1,.54,1.79,1.21,1.21,0,0,1-1.54.69l-.09,0a15.07,15.07,0,0,0-1.83-.68,7.88,7.88,0,0,0-1.86-.32,6.47,6.47,0,0,0-1.9.2,7,7,0,0,0-1.83.74l-.1,0a.56.56,0,0,1-.8-.27A.71.71,0,0,1,195.64,62.18Z" fill="#2c0c04"/><path d="M193.83,67.36s7.28-5.55,11.65,2.47a7.69,7.69,0,0,1-6.38,2.68C195.15,72.12,193.83,67.36,193.83,67.36Z" fill="#fff"/><g clip-path="url(#clip-path-4)"><path d="M196.08,70.46a3.79,3.79,0,1,0,4.29-3.23A3.8,3.8,0,0,0,196.08,70.46Z" fill="#2c0c04"/></g><path d="M205.38,69.76a8.91,8.91,0,0,0-5.17-3.5,6.14,6.14,0,0,0-.75-.08,2.49,2.49,0,0,0-.77,0,5.11,5.11,0,0,0-.78,0l-.78.14c-.53.1-1,.29-1.59.42s-1,.4-1.62.56h0a.12.12,0,0,1-.16-.09.12.12,0,0,1,0-.13A16.94,16.94,0,0,1,195.16,66a11.06,11.06,0,0,1,1.61-.82,7,7,0,0,1,3.71-.39,6.36,6.36,0,0,1,3.32,1.76,6.9,6.9,0,0,1,1.82,3.11.13.13,0,0,1-.1.16.13.13,0,0,1-.13,0Z" fill="#2c0c04"/><path d="M212.28,80.15a51.9,51.9,0,0,1-9.59-1.53s-.92,6,3.81,6.81C210.71,86.12,212.28,80.15,212.28,80.15Z" fill="#2c0c04"/><path d="M202.69,78.62a69.27,69.27,0,0,0,9.59,1.53S210.47,83.29,202.69,78.62Z" fill="#fff"/><path d="M207.82,85.48s-.47-3.28-5.12-4.39a4.88,4.88,0,0,0,1.63,3.43A4.94,4.94,0,0,0,207.82,85.48Z" fill="#e06c6c"/><path d="M181.18,59.94s-.13-5.23-.18-8.13,4.09-10.76,13.79-10.38c0,0,6.61-5.75,17.49-1.31s7,16.69,7,16.69-1,3.46-1,3.71A8.22,8.22,0,0,0,216.39,56s-1.52,5.57-5.57,5.5a6.71,6.71,0,0,0,1.51-6.15c-.92-3.25-11.65-2.12-17.06-.52a2.48,2.48,0,0,0-1.65,1.58,23.91,23.91,0,0,1-2.54,5.09,7.07,7.07,0,0,1-3.22,3.25C185.78,65.74,185.06,60,181.18,59.94Z" fill="#2c0c04"/><path d="M78.15,373.37l-8.79,16.52,42.14-1.29s6.87-20.81,5.28-33.22S89.6,350.29,78.15,373.37Z" fill="#c46341"/><path d="M65.86,385.27l50.74-1.85-9.87,30.84s-1.75,8.25-8.35,8.25H41.29s-22.31.65-17.44-17c3.5-12.65,27.34-8.29,35.28-12A11,11,0,0,0,65.86,385.27Z" fill="#2c0c04"/><line x1="106.74" y1="414.26" x2="23.87" y2="414.26" fill="none" stroke="#f4e7de" stroke-linecap="round" stroke-linejoin="round" stroke-width="0.75"/><path d="M59.13,393.49A40.27,40.27,0,0,1,78.67,397" fill="none" stroke="#f4e7de" stroke-linecap="round" stroke-linejoin="round" stroke-width="0.75"/><path d="M63.85,389.89s10.43-1.44,16.84,2.07" fill="none" stroke="#f4e7de" stroke-linecap="round" stroke-linejoin="round" stroke-width="0.75"/><path d="M238,323.53l-9.31,16.52-42.14-1.3s11.22-20.8,12.81-33.21S226.5,300.44,238,323.53Z" fill="#c46341"/><path d="M232.32,335.42l-45.47-1.85-12.5,30.85s1.76,8.25,8.35,8.25h57.09s22.32.66,17.44-17c-3.5-12.65-21-7.56-28.89-11.31A16.92,16.92,0,0,1,232.32,335.42Z" fill="#2c0c04"/><line x1="174.35" y1="364.42" x2="257.21" y2="364.42" fill="none" stroke="#f4e7de" stroke-linecap="round" stroke-linejoin="round" stroke-width="0.75"/><path d="M228.8,342a36.63,36.63,0,0,0-16.56,3.44" fill="none" stroke="#f4e7de" stroke-linecap="round" stroke-linejoin="round" stroke-width="0.75"/><path d="M228.34,344.38A61.54,61.54,0,0,0,214,349.55" fill="none" stroke="#f4e7de" stroke-linecap="round" stroke-linejoin="round" stroke-width="0.75"/><path d="M122,194,65.14,377.63h54.15l50.61-134,55.63-.63-39.32,87.88h47.95s36.61-55.87,53.17-87.21-.79-48.91-115.85-67.21C171.48,176.45,130.61,157.83,122,194Z" fill="#b2ab77"/><line x1="158.18" y1="274.64" x2="175.02" y2="230.01" fill="none" stroke="#2c0c04" stroke-linecap="round" stroke-linejoin="round" stroke-width="0.75"/><line x1="217.74" y1="260.42" x2="233.09" y2="226.43" fill="none" stroke="#2c0c04" stroke-linecap="round" stroke-linejoin="round" stroke-width="0.75"/><line x1="72.73" y1="353.12" x2="127.89" y2="353.12" fill="none" stroke="#2c0c04" stroke-linecap="round" stroke-linejoin="round" stroke-width="0.75"/><line x1="191.73" y1="318.84" x2="241.96" y2="318.84" fill="none" stroke="#2c0c04" stroke-linecap="round" stroke-linejoin="round" stroke-width="0.75"/><path d="M139.6,195.91s.09,23.54-20.17,27.28" fill="none" stroke="#2c0c04" stroke-linecap="round" stroke-linejoin="round" stroke-width="0.75"/><path d="M220,160.81s-8.52-15.28-15-20.62c0,0,1.26-40.68,28.68-13.39a46.8,46.8,0,0,1,13.28,24C250.1,166,220,160.81,220,160.81Z" fill="#c46341"/><path d="M149,105.65S112,129.57,106.81,132.48c0,0,12.47,17.05,23.49,24.91S148.52,113.9,149,105.65Z" fill="#e6a861"/><path d="M202.06,102.51s19.73,6.08,39.46,26.75c0,0-5.2,3.5-34.32,28.12Z" fill="#e6a861"/><path d="M149,105.65S171.91,90,204.8,103.58a18.31,18.31,0,0,1,11.12,19c-1.59,14.35-4.89,38.52-10.82,59.94A112,112,0,0,0,182,180c-15.16-.07-35.63-11.36-55.58,3.06-10.54,7.62-15.14-2.09-12.3-6.93C123.47,160.29,135.78,142.62,149,105.65Z" fill="#e6a861"/><line x1="209.57" y1="163.7" x2="214.72" y2="132.48" fill="none" stroke="#2c0c04" stroke-linecap="round" stroke-linejoin="round" stroke-width="0.75"/><path d="M221.68,184.29c-5,2.35-11.79,3.47-18.87,5.21L196,172s11.95-.37,16-6.85c6.61-10.64,25.84-38.35,34.17-17.5a18.54,18.54,0,0,1-1.77,16.86A52.62,52.62,0,0,1,221.68,184.29Z" fill="#c46341"/><path d="M215.47,159.75s.88-2.09,7.08-8.92" fill="none" stroke="#2c0c04" stroke-linecap="round" stroke-linejoin="round" stroke-width="0.75"/><path d="M98,124.55c-1-5.58-1-17.46-.35-24.61l18.7,2.57a134,134,0,0,0,4.3,14.87c4.46,11.7,21.55,41.64-.83,39.93-6-.45-9.71-2.57-13-7.83C101.35,140.8,99.82,134.64,98,124.55Z" fill="#c46341"/><path d="M167.61,98.92s23.22,5.31,38.6,5.31" fill="none" stroke="#2c0c04" stroke-linecap="round" stroke-linejoin="round" stroke-width="0.75"/><path d="M122.72,191l1.8-6.68s3.79-14.86,67.89-4.38c0,0,6.36,4.26-3.73,3.66C141.65,180.81,129.47,187.1,122.72,191Z" fill="#2c0c04"/><path d="M54.48,50.54s14.09-24.63,41.2-33.31h0a24,24,0,0,0-33.77-3.57l-3.85,3.11a24,24,0,0,0-3.58,33.77Z" fill="#e06c6c"/><rect x="157.89" y="6.24" width="52.98" height="325.66" transform="translate(-65.3 153.5) rotate(-38.95)" fill="#5b74ce"/><path d="M266.13,312.34l66.64,40.29L307.33,279S278.49,281.84,266.13,312.34Z" fill="#c46341"/><path d="M309.68,338.67l23.09,14L324,327.13S310.66,324.8,309.68,338.67Z" fill="#2c0c04"/><path d="M69.1,68.62S83.19,44,110.3,35.32L95.2,16.65S67.17,22.22,54,50Z" fill="#2c0c04"/><line x1="280.91" y1="264.77" x2="131.21" y2="79.6" fill="none" stroke="#2c0c04" stroke-linecap="round" stroke-linejoin="round" stroke-width="0.75"/><line x1="92.79" y1="70.4" x2="220.67" y2="228.57" fill="none" stroke="#2c0c04" stroke-linecap="round" stroke-linejoin="round" stroke-width="0.75"/><path d="M229.77,177.18a103,103,0,0,1-6.92,8.46c-2.38,2.33-2.8,4.69-17.25,9.67,0,0-6.73,2.36-8.51-.28a1.8,1.8,0,0,1,.56-2.18s-5.19.79-6.24-1.1a1.9,1.9,0,0,1,.7-2.77s-5.07.64-5.6-1.37c-.61-2.34,1.58-3.91,6.84-5.09,0,0-5.91,1.25-6.79-.88s1.85-3.82,6.35-4.56A41,41,0,0,0,203.19,174c3.22-1.79,4.78-3.82.49-2.11-2.88,1.15-6.22,2.15-7.08,0-1.23-3.11,1.82-3.44,5.05-5.18s10.11-2.4,14.87-2.91a19.16,19.16,0,0,1,6.52.3C226.29,164.83,233,172.25,229.77,177.18Z" fill="#c46341"/><path d="M196.6,171.88c-1.23-3.11,1.82-3.44,5.05-5.18s7.63-2.55,12.39-3.06" fill="none" stroke="#2c0c04" stroke-linecap="round" stroke-linejoin="round" stroke-width="0.75"/><path d="M186.51,187.61c-.61-2.35,1.58-3.91,6.84-5.09,0,0-5.91,1.25-6.78-.88s1.84-3.83,6.34-4.56A41,41,0,0,0,203.19,174" fill="none" stroke="#2c0c04" stroke-linecap="round" stroke-linejoin="round" stroke-width="0.75"/><path d="M205.6,195.31s-6.73,2.36-8.51-.28a1.8,1.8,0,0,1,.56-2.18s-5.19.79-6.24-1.1" fill="none" stroke="#2c0c04" stroke-linecap="round" stroke-linejoin="round" stroke-width="0.75"/><path d="M191.24,182.82s3.81.09,17-5.72" fill="none" stroke="#2c0c04" stroke-linecap="round" stroke-linejoin="round" stroke-width="0.75"/><path d="M192.11,189s6.4-.4,18.88-5.89" fill="none" stroke="#2c0c04" stroke-linecap="round" stroke-linejoin="round" stroke-width="0.75"/><path d="M197.65,192.85a56.53,56.53,0,0,0,14.18-4.27" fill="none" stroke="#2c0c04" stroke-linecap="round" stroke-linejoin="round" stroke-width="0.75"/><path d="M124,136.49s-6.85-6.43-4.54-9c4.09-4.52,4.54-8.61,6.42-23.77,0,0,.92-7.07-2-8.26a1.79,1.79,0,0,0-2,1s-.3-5.24-2.37-5.87a1.89,1.89,0,0,0-2.56,1.26s-.44-5.1-2.51-5.2c-2.42-.12-3.5,2.35-3.56,7.74,0,0,0-6-2.27-6.45s-3.36,2.6-3.15,7.16a31.94,31.94,0,0,1-1.63,10.48c-1.08,3.51-2.75,5.47-2,.91.53-3.06,1.39-5.5-.92-5.89-3.3-.56-4.92,5.12-5.44,8.76-.59,4,.59,6.61,1.08,11.38a16,16,0,0,0,1.83,5.63C99.74,129.39,119.81,140.63,124,136.49Z" fill="#c46341"/><path d="M108.53,87.94c-2.26-.42-3.36,2.6-3.15,7.16a31.67,31.67,0,0,1-1.63,10.48c-1.08,3.51-2.75,5.47-2,.91.53-3.06,1.39-5.5-.92-5.89-3.3-.56-4.09,3.65-5.13,7.17s.28,8.2.77,13" fill="none" stroke="#2c0c04" stroke-linecap="round" stroke-linejoin="round" stroke-width="0.75"/><path d="M125.85,103.73s.92-7.07-2-8.26a1.79,1.79,0,0,0-2,1s-.3-5.24-2.37-5.87" fill="none" stroke="#2c0c04" stroke-linecap="round" stroke-linejoin="round" stroke-width="0.75"/><path d="M110.66,92.27a80.57,80.57,0,0,1-1.85,17.9" fill="none" stroke="#2c0c04" stroke-linecap="round" stroke-linejoin="round" stroke-width="0.75"/><path d="M116.87,91.85s.49,6.18-1.89,19.22" fill="none" stroke="#2c0c04" stroke-linecap="round" stroke-linejoin="round" stroke-width="0.75"/><path d="M121.8,96.46s.51,2.59-1.23,15.55" fill="none" stroke="#2c0c04" stroke-linecap="round" stroke-linejoin="round" stroke-width="0.75"/><line x1="120.13" y1="131.92" x2="131.71" y2="146.07" fill="none" stroke="#2c0c04" stroke-linecap="round" stroke-linejoin="round" stroke-width="0.75"/></g></g></g></svg>