<svg xmlns="http://www.w3.org/2000/svg" width="430" height="430" fill="none" viewBox="0 0 430 430"><g stroke-linecap="round" stroke-linejoin="round" stroke-width="12"><path stroke="#121331" d="M401.8 81.57H28.19v266.87H401.8z"/><path stroke="#398a97" d="M348.43 175.11h-80.06m-26.68 0h-53.38m160.12 40.03H188.31m160.12 40H188.31"/><path stroke="#121331" d="M28.19 134.94c29.48 0 53.38-23.9 53.38-53.37m266.86 0c0 29.47 23.9 53.37 53.38 53.37M28.19 295.06c29.48 0 53.38 23.9 53.38 53.37m266.86 0c0-29.47 23.9-53.37 53.38-53.37"/><path stroke="#398a97" d="m82.19 253.53 33.74.29c10.32.08 19.03-8.53 19.06-19.21.03-10.66-8.6-19.32-19.26-19.32h-14.79c-10.67 0-19.32-8.65-19.32-19.32s8.65-19.31 19.32-19.31h29.94m-22.57 92.25v-15.16m0-77.08v-15.58"/></g></svg>